<svg width="29" height="29" viewBox="0 0 29 29" fill="none" xmlns="http://www.w3.org/2000/svg">
<g clip-path="url(#clip0)">
<path d="M14.9883 6.06055C9.63858 6.06055 4.7872 8.98742 1.20737 13.7414C0.915253 14.1309 0.915253 14.6751 1.20737 15.0645C4.7872 19.8243 9.63858 22.7511 14.9883 22.7511C20.338 22.7511 25.1894 19.8243 28.7692 15.0703C29.0613 14.6808 29.0613 14.1366 28.7692 13.7472C25.1894 8.98742 20.338 6.06055 14.9883 6.06055ZM15.372 20.2825C11.8208 20.5059 8.88825 17.579 9.11163 14.0221C9.29492 11.0895 11.6719 8.71249 14.6045 8.5292C18.1557 8.30582 21.0883 11.2327 20.8649 14.7896C20.6759 17.7165 18.2989 20.0935 15.372 20.2825Z" fill="#22BF87"/>
<path d="M11.8274 14.2001C11.7014 16.1132 13.2822 17.6883 15.1953 17.568C16.7704 17.4707 18.0534 16.1934 18.1565 14.6068C18.2825 12.6937 16.7017 11.1186 14.7886 11.2389C13.2077 11.342 11.9247 12.6193 11.8274 14.2001Z" fill="#22BF87"/>
</g>
<defs>
<clipPath id="clip0">
<rect width="28" height="28" fill="white" transform="translate(0.988281 0.40625)"/>
</clipPath>
</defs>
</svg>
