<svg width="29" height="29" viewBox="0 0 29 29" fill="none" xmlns="http://www.w3.org/2000/svg">
<g clip-path="url(#clip0)">
<path d="M14.8949 6.4043C7.70719 6.4043 1.30229 13.8755 1.03279 14.194C0.848444 14.411 0.848444 14.7295 1.03279 14.9477C1.19379 15.1378 3.5481 17.8713 6.94305 20.0482L10.5993 16.3919C10.3614 15.8319 10.2284 15.2171 10.2284 14.5708C10.2284 11.9972 12.3213 9.90424 14.8949 9.90424C15.5413 9.90424 16.1561 10.0372 16.716 10.2752L19.7225 7.26878C18.2572 6.74494 16.6484 6.4043 14.8949 6.4043Z" fill="#838383"/>
<path d="M28.7894 14.238C28.6401 14.0221 26.1633 10.5362 21.9995 8.28922L25.223 5.06577C25.4505 4.83828 25.4505 4.46843 25.223 4.24093C24.9955 4.01344 24.6256 4.01344 24.3981 4.24093L4.56515 24.074C4.33766 24.3015 4.33766 24.6714 4.56515 24.8989C4.6783 25.0132 4.82765 25.0704 4.977 25.0704C5.12635 25.0704 5.27564 25.0132 5.38999 24.9L9.04743 21.2426C10.8499 22.1222 12.8379 22.7371 14.8935 22.7371C22.0812 22.7371 28.4861 15.2658 28.7556 14.9473C28.9248 14.7455 28.9399 14.455 28.7894 14.238ZM14.8935 19.2371C13.8167 19.2371 12.8379 18.8556 12.0469 18.242L18.5649 11.7239C19.1786 12.5149 19.5601 13.4938 19.5601 14.5705C19.5601 17.1441 17.4671 19.2371 14.8935 19.2371Z" fill="#838383"/>
</g>
<defs>
<clipPath id="clip0">
<rect width="28" height="28" fill="white" transform="translate(0.894531 0.570312)"/>
</clipPath>
</defs>
</svg>
