<svg width="61" height="43" viewBox="0 0 61 43" fill="none" xmlns="http://www.w3.org/2000/svg">
<path d="M7.66922 27.61L2.33789 3.08594L24.7295 15.7288L14.2191 18.4706L7.66922 27.61Z" fill="#0E0E0E" stroke="#7481F4" stroke-width="2.5"/>
<rect x="18.1797" y="24.2588" width="42.1936" height="18.7358" fill="#7481F4"/>
<path d="M30.2069 37.6104H29.0769V30.6304H32.0869C32.7136 30.6304 33.2069 30.8204 33.5669 31.2004C33.9269 31.5737 34.1069 32.0837 34.1069 32.7304C34.1069 33.2304 33.9903 33.647 33.7569 33.9804C33.5303 34.307 33.1936 34.537 32.7469 34.6704L34.2569 37.6104H32.9969L31.5969 34.7904H30.2069V37.6104ZM32.0069 33.8404C32.2936 33.8404 32.5169 33.767 32.6769 33.6204C32.8369 33.467 32.9169 33.2504 32.9169 32.9704V32.4904C32.9169 32.2104 32.8369 31.997 32.6769 31.8504C32.5169 31.697 32.2936 31.6204 32.0069 31.6204H30.2069V33.8404H32.0069ZM39.262 37.6104C38.9753 37.6104 38.7553 37.5304 38.602 37.3704C38.4487 37.2037 38.3553 36.9937 38.322 36.7404H38.272C38.172 37.067 37.9887 37.3137 37.722 37.4804C37.4553 37.647 37.132 37.7304 36.752 37.7304C36.212 37.7304 35.7953 37.5904 35.502 37.3104C35.2153 37.0304 35.072 36.6537 35.072 36.1804C35.072 35.6604 35.2587 35.2704 35.632 35.0104C36.012 34.7504 36.5653 34.6204 37.292 34.6204H38.232V34.1804C38.232 33.8604 38.1453 33.6137 37.972 33.4404C37.7987 33.267 37.5287 33.1804 37.162 33.1804C36.8553 33.1804 36.6053 33.247 36.412 33.3804C36.2187 33.5137 36.0553 33.6837 35.922 33.8904L35.272 33.3004C35.4453 33.007 35.6887 32.767 36.002 32.5804C36.3153 32.387 36.7253 32.2904 37.232 32.2904C37.9053 32.2904 38.422 32.447 38.782 32.7604C39.142 33.0737 39.322 33.5237 39.322 34.1104V36.7204H39.872V37.6104H39.262ZM37.062 36.9004C37.402 36.9004 37.682 36.827 37.902 36.6804C38.122 36.527 38.232 36.3237 38.232 36.0704V35.3204H37.312C36.5587 35.3204 36.182 35.5537 36.182 36.0204V36.2004C36.182 36.4337 36.2587 36.6104 36.412 36.7304C36.572 36.8437 36.7887 36.9004 37.062 36.9004ZM42.0503 37.6104C41.677 37.6104 41.397 37.517 41.2103 37.3304C41.0303 37.137 40.9403 36.8704 40.9403 36.5304V30.2104H42.0303V36.7204H42.7503V37.6104H42.0503ZM46.9418 36.7504H46.9018C46.8552 36.877 46.7918 37.0004 46.7118 37.1204C46.6385 37.2404 46.5418 37.347 46.4218 37.4404C46.3085 37.527 46.1685 37.597 46.0018 37.6504C45.8418 37.7037 45.6552 37.7304 45.4418 37.7304C44.9018 37.7304 44.4818 37.557 44.1818 37.2104C43.8885 36.8637 43.7418 36.367 43.7418 35.7204V32.4104H44.8318V35.5804C44.8318 36.387 45.1652 36.7904 45.8318 36.7904C45.9718 36.7904 46.1085 36.7737 46.2418 36.7404C46.3752 36.7004 46.4918 36.6437 46.5918 36.5704C46.6985 36.497 46.7818 36.4037 46.8418 36.2904C46.9085 36.177 46.9418 36.0437 46.9418 35.8904V32.4104H48.0318V37.6104H46.9418V36.7504Z" fill="white"/>
</svg>
