<svg width="70" height="46" viewBox="0 0 70 46" fill="none" xmlns="http://www.w3.org/2000/svg">
<path d="M38.1055 14.6454L60.4141 3.14844L53.9974 28.0492L48.6287 18.6067L38.1055 14.6454Z" fill="#0E0E0E" stroke="#7481F4" stroke-width="2.5"/>
<rect x="0.327148" y="26.6123" width="42.1936" height="18.7358" fill="#7481F4"/>
<path d="M13.2259 39.9639V37.2139L10.8259 32.9839H12.1159L13.8159 36.0939H13.8459L15.5359 32.9839H16.7759L14.3559 37.1939V39.9639H13.2259ZM19.1707 40.0839C18.7974 40.0839 18.464 40.0205 18.1707 39.8939C17.8774 39.7672 17.6274 39.5872 17.4207 39.3539C17.214 39.1139 17.054 38.8272 16.9407 38.4939C16.834 38.1539 16.7807 37.7772 16.7807 37.3639C16.7807 36.9505 16.834 36.5772 16.9407 36.2439C17.054 35.9039 17.214 35.6172 17.4207 35.3839C17.6274 35.1439 17.8774 34.9605 18.1707 34.8339C18.464 34.7072 18.7974 34.6439 19.1707 34.6439C19.5507 34.6439 19.884 34.7105 20.1707 34.8439C20.464 34.9772 20.7074 35.1639 20.9007 35.4039C21.094 35.6372 21.2374 35.9105 21.3307 36.2239C21.4307 36.5372 21.4807 36.8739 21.4807 37.2339V37.6439H17.9107V37.8139C17.9107 38.2139 18.0274 38.5439 18.2607 38.8039C18.5007 39.0572 18.8407 39.1839 19.2807 39.1839C19.6007 39.1839 19.8707 39.1139 20.0907 38.9739C20.3107 38.8339 20.4974 38.6439 20.6507 38.4039L21.2907 39.0339C21.0974 39.3539 20.8174 39.6105 20.4507 39.8039C20.084 39.9905 19.6574 40.0839 19.1707 40.0839ZM19.1707 35.4939C18.984 35.4939 18.8107 35.5272 18.6507 35.5939C18.4974 35.6605 18.364 35.7539 18.2507 35.8739C18.144 35.9939 18.0607 36.1372 18.0007 36.3039C17.9407 36.4705 17.9107 36.6539 17.9107 36.8539V36.9239H20.3307V36.8239C20.3307 36.4239 20.2274 36.1039 20.0207 35.8639C19.814 35.6172 19.5307 35.4939 19.1707 35.4939ZM22.6874 39.9639V34.7639H23.7774V35.7639H23.8274C23.9007 35.4972 24.054 35.2639 24.2874 35.0639C24.5207 34.8639 24.844 34.7639 25.2574 34.7639H25.5474V35.8139H25.1174C24.684 35.8139 24.3507 35.8839 24.1174 36.0239C23.8907 36.1639 23.7774 36.3705 23.7774 36.6439V39.9639H22.6874ZM26.0955 39.9639V39.0839L28.8855 35.6539H26.1855V34.7639H30.1755V35.6039L27.3455 39.0739H30.2455V39.9639H26.0955Z" fill="white"/>
</svg>
