<svg width="77" height="94" viewBox="0 0 77 94" fill="none" xmlns="http://www.w3.org/2000/svg">
<path d="M19.8596 14.1063C19.8596 15.6682 18.5937 16.9341 17.0319 16.9341C15.4707 16.9341 14.2041 15.6682 14.2041 14.1063C14.2041 12.5452 15.4707 11.2793 17.0319 11.2793C18.5937 11.2793 19.8596 12.5452 19.8596 14.1063Z" fill="#FF6E7F"/>
<path d="M10.2991 37.7887C10.2991 39.3505 9.03244 40.6165 7.47131 40.6165C5.90947 40.6165 4.64355 39.3505 4.64355 37.7887C4.64355 36.2276 5.90947 34.9609 7.47131 34.9609C9.03244 34.9609 10.2991 36.2276 10.2991 37.7887Z" fill="#FF6E7F"/>
<path d="M63.4133 14.1063C63.4133 15.6682 62.1474 16.9341 60.5856 16.9341C59.0237 16.9341 57.7578 15.6682 57.7578 14.1063C57.7578 12.5452 59.0237 11.2793 60.5856 11.2793C62.1474 11.2793 63.4133 12.5452 63.4133 14.1063Z" fill="#FF6E7F"/>
<path d="M72.9758 37.7887C72.9758 39.3505 71.7099 40.6165 70.1481 40.6165C68.5862 40.6165 67.3203 39.3505 67.3203 37.7887C67.3203 36.2276 68.5862 34.9609 70.1481 34.9609C71.7099 34.9609 72.9758 36.2276 72.9758 37.7887Z" fill="#FF6E7F"/>
<path d="M6.37817 61.4684C6.37817 63.0302 5.11226 64.2961 3.55041 64.2961C1.98857 64.2961 0.722656 63.0302 0.722656 61.4684C0.722656 59.9065 1.98857 58.6406 3.55041 58.6406C5.11226 58.6406 6.37817 59.9065 6.37817 61.4684Z" fill="#FF6E7F"/>
<path d="M76.8957 61.4684C76.8957 63.0302 75.6291 64.2961 74.068 64.2961C72.5061 64.2961 71.2402 63.0302 71.2402 61.4684C71.2402 59.9065 72.5061 58.6406 74.068 58.6406C75.6291 58.6406 76.8957 59.9065 76.8957 61.4684Z" fill="#FF6E7F"/>
<path d="M72.8604 62.6546C71.5895 59.5623 70.8975 56.5094 71.6924 53.1763C72.6374 49.2141 72.5995 45.3228 70.3729 41.7566C68.37 38.5493 67.4929 35.4463 67.6788 31.6407C67.861 27.9095 66.4808 24.2804 63.8982 21.7064C61.5901 19.4047 59.9603 17.0545 59.174 13.8379C58.1462 9.63196 55.1561 6.25881 51.2305 4.87924C49.3677 4.22377 47.5378 3.61904 45.9416 2.41389C41.6836 -0.802722 35.9415 -0.804867 31.682 2.40888C30.0995 3.60332 28.236 4.22877 26.3882 4.87924C22.4625 6.25881 19.4718 9.63196 18.4439 13.8379C17.6755 16.983 15.9957 19.4376 13.7198 21.7071C11.1379 24.2811 9.75691 27.9102 9.9399 31.6414C10.1243 35.4077 9.2251 38.5865 7.24581 41.7573C5.03278 45.302 4.98561 49.2341 5.92629 53.177C6.71757 56.4923 6.02493 59.5745 4.7583 62.6538C3.17644 66.4988 3.75829 70.363 5.29369 74.095C6.5789 77.2222 6.3809 80.3652 5.61606 83.5711C5.6082 83.6061 5.59962 83.6404 5.59176 83.6755C4.41591 88.7863 8.16934 93.6906 13.1815 93.6906L64.3835 93.6898C69.4236 93.6898 73.1963 88.7584 72.014 83.6204C72.0055 83.5861 71.9976 83.5511 71.9897 83.5161C71.2256 80.313 71.0433 77.2115 72.325 74.095C73.8704 70.3365 74.4551 66.5316 72.8604 62.6546Z" fill="#36D39A"/>
<path d="M13.1324 83.675C13.1403 83.64 13.1488 83.6057 13.1567 83.5706C13.9215 80.3647 14.1195 77.2217 12.8336 74.0945C11.2989 70.3625 10.7171 66.4983 12.2982 62.6534C13.5649 59.574 14.2575 56.4918 13.4669 53.1765C12.5263 49.2337 12.5734 45.3015 14.7865 41.7568C16.7657 38.586 17.665 35.4072 17.4805 31.641C17.2976 27.9097 18.6778 24.2806 21.2597 21.7066C23.5363 19.4364 25.2161 16.9818 25.9845 13.8374C27.0124 9.63077 30.0032 6.25833 33.9281 4.87805C35.7766 4.22829 37.6401 3.60284 39.2227 2.4084C40.267 1.62069 41.4007 1.02741 42.5794 0.625688C38.9525 -0.609491 34.896 -0.0162047 31.6822 2.4084C30.0997 3.60284 28.2362 4.22829 26.3877 4.87805C22.4627 6.25833 19.472 9.63077 18.4441 13.8374C17.6757 16.9818 15.9959 19.4364 13.7193 21.7066C11.1374 24.2806 9.75711 27.9097 9.9401 31.641C10.1245 35.4072 9.22529 38.586 7.24529 41.7568C5.03298 45.3015 4.9858 49.2337 5.92648 53.1765C6.71705 56.4918 6.02441 59.574 4.75778 62.6534C3.17664 66.4983 3.75849 70.3625 5.29317 74.0945C6.5791 77.221 6.3811 80.364 5.61626 83.5706C5.60768 83.6057 5.59982 83.64 5.59195 83.675C4.4161 88.7858 8.16953 93.6901 13.1817 93.6901H20.7186C15.7078 93.6872 11.9566 88.7844 13.1324 83.675Z" fill="#00C680"/>
<path d="M22.7752 78.4284C21.9946 78.4284 21.3613 77.7958 21.3613 77.0145V74.1131C21.3613 73.3318 21.9946 72.6992 22.7752 72.6992C23.5565 72.6992 24.1891 73.3318 24.1891 74.1131V77.0145C24.1891 77.7958 23.5565 78.4284 22.7752 78.4284Z" fill="#333941"/>
<path d="M54.8445 78.4284C54.0633 78.4284 53.4307 77.7958 53.4307 77.0145V74.1131C53.4307 73.3318 54.0633 72.6992 54.8445 72.6992C55.6251 72.6992 56.2577 73.3318 56.2577 74.1131V77.0145C56.2577 77.7958 55.6251 78.4284 54.8445 78.4284Z" fill="#333941"/>
<path d="M38.81 79.9786C36.8593 79.9786 35.0287 79.1644 33.7878 77.7448C33.2739 77.1565 33.3339 76.2638 33.9222 75.7498C34.5098 75.2359 35.4033 75.2959 35.9172 75.8835C36.6213 76.6891 37.6756 77.1508 38.81 77.1508C39.9444 77.1508 40.9988 76.6891 41.7028 75.8835C42.2168 75.2959 43.1103 75.2359 43.6978 75.7498C44.2861 76.2638 44.3462 77.1565 43.8315 77.7448C42.5906 79.1644 40.76 79.9786 38.81 79.9786Z" fill="#333941"/>
<path d="M41.6379 14.1063C41.6379 15.6682 40.372 16.9341 38.8102 16.9341C37.2483 16.9341 35.9824 15.6682 35.9824 14.1063C35.9824 12.5452 37.2483 11.2793 38.8102 11.2793C40.372 11.2793 41.6379 12.5452 41.6379 14.1063Z" fill="#FF6E7F"/>
<path d="M41.6379 37.7887C41.6379 39.3505 40.372 40.6165 38.8102 40.6165C37.2483 40.6165 35.9824 39.3505 35.9824 37.7887C35.9824 36.2276 37.2483 34.9609 38.8102 34.9609C40.372 34.9609 41.6379 36.2276 41.6379 37.7887Z" fill="#FF6E7F"/>
<path d="M41.6379 61.4684C41.6379 63.0302 40.372 64.2961 38.8102 64.2961C37.2483 64.2961 35.9824 63.0302 35.9824 61.4684C35.9824 59.9065 37.2483 58.6406 38.8102 58.6406C40.372 58.6406 41.6379 59.9065 41.6379 61.4684Z" fill="#FF6E7F"/>
<path d="M28.2698 25.9469C28.2698 27.5087 27.0039 28.7747 25.442 28.7747C23.8802 28.7747 22.6143 27.5087 22.6143 25.9469C22.6143 24.3858 23.8802 23.1191 25.442 23.1191C27.0039 23.1191 28.2698 24.3858 28.2698 25.9469Z" fill="#FF6E7F"/>
<path d="M55.0061 25.9469C55.0061 27.5087 53.7402 28.7747 52.1783 28.7747C50.6172 28.7747 49.3506 27.5087 49.3506 25.9469C49.3506 24.3858 50.6172 23.1191 52.1783 23.1191C53.7402 23.1191 55.0061 24.3858 55.0061 25.9469Z" fill="#FF6E7F"/>
<path d="M22.6145 49.6285C22.6145 51.1904 21.3486 52.4563 19.7867 52.4563C18.2256 52.4563 16.959 51.1904 16.959 49.6285C16.959 48.0667 18.2256 46.8008 19.7867 46.8008C21.3486 46.8008 22.6145 48.0667 22.6145 49.6285Z" fill="#FF6E7F"/>
<path d="M60.6614 49.6285C60.6614 51.1904 59.3955 52.4563 57.8336 52.4563C56.2718 52.4563 55.0059 51.1904 55.0059 49.6285C55.0059 48.0667 56.2718 46.8008 57.8336 46.8008C59.3955 46.8008 60.6614 48.0667 60.6614 49.6285Z" fill="#FF6E7F"/>
</svg>
