<svg width="92" height="94" viewBox="0 0 92 94" fill="none" xmlns="http://www.w3.org/2000/svg">
<path d="M60.6547 89.6509C56.0865 79.3743 55.3702 65.2012 55.3702 65.2012L46.0528 60.5586L36.7354 65.2012C36.7354 65.2012 36.0199 79.3743 31.4516 89.6509C30.6024 91.5609 31.982 93.7131 34.0721 93.7131H58.0343C60.1244 93.7131 61.5039 91.5609 60.6547 89.6509Z" fill="#DE8A57"/>
<path d="M37.1064 89.6509C41.6747 79.3743 42.3909 65.2012 42.3909 65.2012L48.8806 61.9675L46.0528 60.5586L36.7354 65.2012C36.7354 65.2012 36.0199 79.3743 31.4516 89.6509C30.6024 91.5609 31.982 93.7131 34.0721 93.7131H39.7268C37.6368 93.7131 36.2572 91.5609 37.1064 89.6509Z" fill="#C66D33"/>
<path d="M90.0344 40.0112C89.1245 38.3271 88.3854 36.7567 88.5941 34.7853C89.033 30.6424 87.5755 26.523 84.6298 23.5773C83.0415 21.989 81.4961 20.3021 80.9336 18.0498L80.8957 17.9233C79.835 14.3643 77.0523 11.5795 73.4947 10.5158C71.281 9.85465 69.311 8.55444 67.8314 6.7796L67.7628 6.69669C65.3503 3.80105 61.6555 2.29497 57.9064 2.67882C55.6634 2.90827 53.4032 2.45794 51.4189 1.38646L51.3975 1.37431C48.0637 -0.426258 44.0473 -0.426973 40.7127 1.37288L40.6927 1.38361C38.7006 2.45937 36.4311 2.9097 34.1752 2.67596C30.8521 2.33214 27.5512 3.50441 25.1881 5.86681C23.266 7.78818 21.4461 9.70455 18.7413 10.478C15.1059 11.563 12.2624 14.4065 11.1766 18.0412L11.0566 18.4436C10.444 20.4944 9.18951 22.2935 7.47757 23.5773C4.52403 25.7925 2.95005 29.3958 3.33175 33.0684C3.57478 35.4015 3.24812 37.8375 2.08443 39.9897L2.07586 40.0069C0.272424 43.3429 0.27171 47.3622 2.073 50.6995L2.09587 50.7424C3.16735 52.726 3.61267 54.9876 3.37464 57.2335C3.37178 57.2628 3.36892 57.2914 3.36606 57.32C2.95791 61.553 6.33247 65.2013 10.5855 65.2013H81.5219C85.7742 65.2013 89.1495 61.553 88.7413 57.32C88.7385 57.2914 88.7356 57.2628 88.732 57.2292C88.4983 54.9797 88.9479 52.7117 90.0222 50.7217L90.0351 50.6981C91.8357 47.3636 91.8357 43.3457 90.0344 40.0112Z" fill="#FE8A97"/>
<path d="M16.2393 65.2017C11.987 65.2017 8.61242 61.5533 9.01986 57.3203C9.2393 55.0458 8.81757 52.7148 7.7275 50.6991C5.92621 47.3624 5.92692 43.3424 7.72965 40.0064L7.73894 39.99C8.89406 37.8491 9.23573 35.4667 8.98627 33.0686C8.60385 29.3959 10.1778 25.7926 13.1321 23.5767C14.8433 22.2929 16.0985 20.4938 16.7104 18.4438C17.8298 14.6961 20.5467 11.6267 24.3952 10.4773C27.0964 9.67102 28.9156 7.79324 30.842 5.86685C32.6468 4.0627 32.8012 2.95333 34.2544 2.68314C34.2294 2.68028 34.2044 2.67956 34.1744 2.67599C32.3052 2.48299 30.4424 2.76891 28.7505 3.47728C27.4217 4.03339 26.2051 4.84898 25.1865 5.86757C24.5546 6.50017 23.922 7.13205 23.2894 7.76465C22.0285 9.02555 20.4495 9.96695 18.7404 10.478C16.6954 11.0885 14.9012 12.255 13.5295 13.8061C12.4495 15.0263 11.6417 16.4802 11.1757 18.0413C10.5209 20.2329 9.32151 22.1943 7.47661 23.5774C4.9841 25.4466 3.47445 28.3044 3.29289 31.3573C3.2257 32.4939 3.44442 33.6154 3.43442 34.7505C3.41798 36.5696 2.94907 38.3895 2.08345 39.99L2.07487 40.0071C0.294302 43.3059 0.292158 47.4031 2.07201 50.6998L2.07701 50.7084L2.0956 50.7427C3.14635 52.6862 3.60668 55.0029 3.37366 57.2338C3.37223 57.2481 3.3708 57.2631 3.36937 57.2774C3.36794 57.2917 3.36651 57.306 3.36508 57.3203C3.12205 59.8414 4.27717 62.3432 6.32435 63.8242C7.51878 64.6891 8.99055 65.2024 10.5853 65.2024H16.2393V65.2017Z" fill="#FF6E7F"/>
<path d="M29.282 45.7319C28.5008 45.7319 27.8682 45.0986 27.8682 44.3181V41.2823C27.8682 40.5017 28.5008 39.8691 29.282 39.8691C30.0633 39.8691 30.6959 40.5017 30.6959 41.2823V44.3181C30.6959 45.0986 30.0626 45.7319 29.282 45.7319Z" fill="#333941"/>
<path d="M62.825 45.7319C62.0437 45.7319 61.4111 45.0986 61.4111 44.3181V41.2823C61.4111 40.5017 62.0437 39.8691 62.825 39.8691C63.6056 39.8691 64.2389 40.5017 64.2389 41.2823V44.3181C64.2389 45.0986 63.6056 45.7319 62.825 45.7319Z" fill="#333941"/>
<path d="M46.0531 47.3523C44.0316 47.3523 42.1353 46.5088 40.8494 45.0378C40.3354 44.4495 40.3955 43.5567 40.9837 43.0428C41.5713 42.5288 42.4641 42.5889 42.978 43.1764C43.7271 44.0335 44.8479 44.5246 46.0538 44.5246C47.259 44.5246 48.3798 44.0335 49.1282 43.1764C49.6421 42.5889 50.5356 42.5288 51.1232 43.0428C51.7114 43.5567 51.7715 44.4495 51.2576 45.0378C49.9716 46.5088 48.0745 47.3523 46.0531 47.3523Z" fill="#333941"/>
<path d="M27.6626 34.1966C26.3302 34.1966 25.0571 33.6748 24.0786 32.727C23.9463 32.599 23.8205 32.4639 23.7033 32.3231C23.5853 32.4639 23.4595 32.599 23.3273 32.727C22.3487 33.6748 21.0757 34.1959 19.7433 34.1959C19.1422 34.1959 18.5582 34.0887 18.0071 33.8771C17.6203 33.7284 17.5553 33.6605 17.4195 33.2702C16.8548 31.6448 17.2093 29.8163 18.3166 28.4546C16.9063 27.4096 16.1093 25.7262 16.2529 24.0114C16.2865 23.6126 16.3308 23.5203 16.6718 23.278C17.4974 22.6912 18.4845 22.3817 19.5253 22.3817C19.8991 22.3817 20.2744 22.4231 20.6418 22.5046C20.7869 22.0343 20.9985 21.5868 21.2715 21.1765C21.7783 20.4153 22.4724 19.8148 23.2808 19.4396C23.6454 19.2701 23.7605 19.2701 24.1257 19.4396C24.9335 19.8148 25.6282 20.4153 26.1343 21.1765C26.4074 21.5868 26.619 22.0343 26.7648 22.5046C27.1322 22.4231 27.5075 22.3817 27.8806 22.3817C28.922 22.3817 29.9085 22.6912 30.7341 23.278C31.0714 23.5175 31.1186 23.5997 31.1529 24.0114C31.2966 25.7262 30.4996 27.4096 29.09 28.4546C30.1965 29.8163 30.5511 31.6448 29.9871 33.2702C29.8513 33.6605 29.7855 33.7284 29.3995 33.8771C28.8477 34.0887 28.2637 34.1966 27.6626 34.1966Z" fill="white"/>
<path d="M25.788 26.9405C25.788 28.0928 24.8545 29.0263 23.703 29.0263C22.5507 29.0263 21.6172 28.0928 21.6172 26.9405C21.6172 25.789 22.5507 24.8555 23.703 24.8555C24.8545 24.8555 25.788 25.789 25.788 26.9405Z" fill="#FF6E7F"/>
<path d="M20.0456 58.9915C18.7133 58.9915 17.4402 58.4697 16.4616 57.5219C16.3294 57.3939 16.2043 57.2588 16.0864 57.118C15.9684 57.2588 15.8433 57.3939 15.7104 57.5219C14.7318 58.4697 13.4588 58.9908 12.1264 58.9908C11.5252 58.9908 10.9412 58.8836 10.3901 58.672C10.0041 58.5233 9.93837 58.4554 9.80256 58.0644C9.23787 56.4397 9.59313 54.6112 10.6996 53.2488C9.29005 52.2045 8.49305 50.5211 8.63672 48.8063C8.66961 48.4075 8.71392 48.3146 9.05488 48.073C9.88119 47.4861 10.8676 47.1766 11.9084 47.1766C12.2822 47.1766 12.6575 47.2181 13.0249 47.2995C13.17 46.8292 13.3823 46.381 13.6546 45.9714C14.1614 45.2102 14.8562 44.6097 15.6639 44.2345C16.0285 44.0651 16.1443 44.0651 16.5088 44.2345C17.3165 44.6097 18.0113 45.2102 18.5181 45.9714C18.7905 46.381 19.0027 46.8292 19.1479 47.2995C19.5153 47.2181 19.8905 47.1766 20.2637 47.1766C21.3051 47.1766 22.2915 47.4861 23.1171 48.073C23.4545 48.3124 23.5017 48.3939 23.536 48.8063C23.6797 50.5211 22.8827 52.2045 21.4731 53.2488C22.5796 54.6112 22.9341 56.4397 22.3702 58.0644C22.2344 58.4554 22.1686 58.5233 21.7826 58.672C21.2308 58.8836 20.6468 58.9915 20.0456 58.9915Z" fill="white"/>
<path d="M18.1718 51.7355C18.1718 52.887 17.2383 53.8205 16.086 53.8205C14.9345 53.8205 14.001 52.887 14.001 51.7355C14.001 50.5839 14.9345 49.6504 16.086 49.6504C17.2383 49.6504 18.1718 50.5839 18.1718 51.7355Z" fill="#FF6E7F"/>
<path d="M64.445 34.1966C65.7774 34.1966 67.0498 33.6748 68.029 32.727C68.1613 32.599 68.2864 32.4639 68.4043 32.3231C68.5223 32.4639 68.6473 32.599 68.7796 32.727C69.7589 33.6748 71.0312 34.1959 72.3636 34.1959C72.9647 34.1959 73.5494 34.0887 74.1005 33.8771C74.4865 33.7284 74.5523 33.6605 74.6881 33.2702C75.2521 31.6448 74.8975 29.8163 73.791 28.4546C75.2006 27.4096 75.9976 25.7262 75.854 24.0114C75.8204 23.6126 75.7768 23.5203 75.4351 23.278C74.6095 22.6912 73.6231 22.3817 72.5816 22.3817C72.2078 22.3817 71.8332 22.4231 71.4658 22.5046C71.32 22.0343 71.1084 21.5868 70.8353 21.1765C70.3293 20.4153 69.6345 19.8148 68.8268 19.4396C68.4615 19.2701 68.3464 19.2701 67.9819 19.4396C67.1734 19.8148 66.4786 20.4153 65.9726 21.1765C65.6995 21.5868 65.4879 22.0343 65.3428 22.5046C64.9754 22.4231 64.6001 22.3817 64.2263 22.3817C63.1856 22.3817 62.1984 22.6912 61.3728 23.278C61.0354 23.5175 60.989 23.5997 60.954 24.0114C60.811 25.7262 61.608 27.4096 63.0176 28.4546C61.9111 29.8163 61.5558 31.6448 62.1205 33.2702C62.2563 33.6605 62.3221 33.7284 62.7081 33.8771C63.2592 34.0887 63.8439 34.1966 64.445 34.1966Z" fill="white"/>
<path d="M70.4895 26.9405C70.4895 28.0928 69.5559 29.0263 68.4044 29.0263C67.2529 29.0263 66.3193 28.0928 66.3193 26.9405C66.3193 25.789 67.2529 24.8555 68.4044 24.8555C69.5559 24.8555 70.4895 25.789 70.4895 26.9405Z" fill="#FF6E7F"/>
<path d="M72.0607 58.9915C73.3931 58.9915 74.6654 58.4697 75.6447 57.5219C75.7769 57.3939 75.902 57.2588 76.02 57.118C76.1379 57.2588 76.263 57.3939 76.3952 57.5219C77.3745 58.4697 78.6468 58.9908 79.9792 58.9908C80.5804 58.9908 81.1651 58.8836 81.7162 58.672C82.1022 58.5233 82.168 58.4554 82.3038 58.0644C82.8677 56.4397 82.5132 54.6112 81.4067 53.2488C82.8163 52.2045 83.6133 50.5211 83.4696 48.8063C83.4367 48.4075 83.3924 48.3146 83.0507 48.073C82.2251 47.4861 81.2387 47.1766 80.1972 47.1766C79.8241 47.1766 79.4489 47.2181 79.0814 47.2995C78.9356 46.8292 78.724 46.381 78.4517 45.9714C77.9449 45.2102 77.2501 44.6097 76.4424 44.2345C76.0779 44.0651 75.9621 44.0651 75.5975 44.2345C74.7898 44.6097 74.095 45.2102 73.5882 45.9714C73.3159 46.381 73.1036 46.8292 72.9585 47.2995C72.5911 47.2181 72.2158 47.1766 71.8427 47.1766C70.8012 47.1766 69.8148 47.4861 68.9892 48.073C68.6518 48.3124 68.6046 48.3939 68.5703 48.8063C68.4266 50.5211 69.2236 52.2045 70.6332 53.2488C69.5267 54.6112 69.1722 56.4397 69.7362 58.0644C69.872 58.4554 69.9377 58.5233 70.3237 58.672C70.8748 58.8836 71.4588 58.9915 72.0607 58.9915Z" fill="white"/>
<path d="M78.1057 51.7355C78.1057 52.887 77.1722 53.8205 76.0206 53.8205C74.8691 53.8205 73.9355 52.887 73.9355 51.7355C73.9355 50.5839 74.8691 49.6504 76.0206 49.6504C77.1722 49.6504 78.1057 50.5839 78.1057 51.7355Z" fill="#FF6E7F"/>
<path d="M50.0132 21.3997C48.6808 21.3997 47.4077 20.8779 46.4291 19.9301C46.2962 19.8021 46.1711 19.6678 46.0532 19.5269C45.9352 19.6678 45.8101 19.8021 45.6779 19.9301C44.6993 20.8779 43.4263 21.3997 42.0939 21.3997C41.4927 21.3997 40.9087 21.2918 40.3569 21.0802C39.9709 20.9322 39.9052 20.8643 39.7694 20.4733C39.2054 18.8479 39.5599 17.0194 40.6664 15.6577C39.2568 14.6127 38.4598 12.9293 38.6035 11.2153C38.6371 10.8157 38.6814 10.7235 39.0224 10.4812C39.848 9.8943 40.8351 9.5848 41.8759 9.5848C42.2497 9.5848 42.6243 9.62625 42.9917 9.70846C43.1375 9.2374 43.3491 8.78994 43.6221 8.37964C44.1282 7.6191 44.823 7.01795 45.6307 6.64268C45.996 6.47327 46.1111 6.47327 46.4756 6.64268C47.284 7.01795 47.9788 7.6191 48.4849 8.37964C48.758 8.78994 48.9695 9.2374 49.1146 9.70846C49.4821 9.62625 49.8573 9.5848 50.2312 9.5848C51.2719 9.5848 52.2591 9.8943 53.0846 10.4812C53.422 10.7206 53.4685 10.8028 53.5028 11.2153C53.6465 12.9293 52.8495 14.6127 51.4399 15.6577C52.5464 17.0194 52.9017 18.8479 52.337 20.4733C52.2012 20.8636 52.1354 20.9322 51.7494 21.0802C51.1983 21.2925 50.6143 21.3997 50.0132 21.3997Z" fill="white"/>
<path d="M48.1386 14.1444C48.1386 15.2959 47.2044 16.2294 46.0528 16.2294C44.9013 16.2294 43.9678 15.2959 43.9678 14.1444C43.9678 12.9921 44.9013 12.0586 46.0528 12.0586C47.2044 12.0586 48.1386 12.9921 48.1386 14.1444Z" fill="#FF6E7F"/>
</svg>
