<svg width="95" height="95" viewBox="0 0 95 95" fill="none" xmlns="http://www.w3.org/2000/svg">
<path d="M21.1795 73.6737C13.2123 66.7758 14 54.7286 14 54.7286L17.579 51.5605L20.5469 54.7286C20.5469 54.7286 22.6277 62.2604 29.0966 64.8695L28.2489 72.4199L21.1795 73.6737Z" fill="#DE8A57"/>
<path d="M57.3029 79.9652C57.3029 79.9652 66.7576 78.6449 73.1765 72.419L80.7499 70.4297C76.7706 86.8602 55.8468 94.3055 55.8468 94.3055L50.4551 89.0424L57.3029 79.9652Z" fill="#DE8A57"/>
<path d="M63.5381 78.2715C60.0241 79.5853 57.3029 79.9656 57.3029 79.9656L50.4551 89.0429L55.8468 94.3059C55.8468 94.3059 58.2357 93.4546 61.551 91.6962C61.7411 86.5982 62.4831 82.1943 63.5381 78.2715Z" fill="#C66D33"/>
<path d="M48.7872 41.4026C38.261 66.1941 20.8033 59.7752 12.8447 94.3059H55.8473C55.8473 66.1941 70.866 56.6944 70.866 41.4026L59.4063 36.9258L48.7872 41.4026Z" fill="#DE8A57"/>
<path d="M56.3276 41.4019L63.3198 38.454L59.4063 36.9258L48.7865 41.4019C38.261 66.1934 20.8033 59.7745 12.8447 94.3052H20.3852C28.3438 59.7745 45.8014 66.1934 56.3276 41.4019Z" fill="#C66D33"/>
<path d="M83.8393 19.644C83.8393 19.6419 83.8393 19.6397 83.8393 19.6376C83.8393 13.115 78.5519 7.8276 72.03 7.8276C70.7255 7.8276 69.471 8.03918 68.298 8.43018C67.238 8.78258 66.07 8.38872 65.471 7.44661C63.3766 4.15065 59.6932 1.96264 55.4987 1.96264C52.9598 1.96264 50.6088 2.76536 48.6838 4.12921C47.8189 4.74179 46.6473 4.6939 45.8146 4.03914C43.0862 1.89473 39.6458 0.615234 35.9067 0.615234C28.1296 0.615234 21.6478 6.14853 20.1767 13.4924C19.9451 14.6518 18.9358 15.4746 17.7536 15.4724C17.7464 15.4724 17.7385 15.4724 17.7314 15.4724C10.514 15.4724 4.67337 21.3703 4.76773 28.6098C4.85994 35.7342 10.7992 41.4026 17.9251 41.4026H79.0837C85.3675 41.4026 90.5963 36.3776 90.6249 30.0944C90.6456 25.4261 87.8493 21.4103 83.8393 19.644Z" fill="#00C680"/>
<path d="M12.3082 30.4947C12.2138 23.2559 18.0545 17.3574 25.2718 17.3574H25.294C26.4756 17.3595 27.4849 16.5368 27.7172 15.3781C29.1882 8.03346 35.6701 2.50017 43.4471 2.50017C43.4493 2.50017 43.4507 2.50089 43.4529 2.50089C41.2027 1.2993 38.6351 0.615234 35.9067 0.615234C28.1296 0.615234 21.6478 6.14853 20.1767 13.4931C19.9451 14.6518 18.9358 15.4746 17.7535 15.4724C17.7464 15.4724 17.7385 15.4724 17.7314 15.4724C10.514 15.4724 4.67407 21.371 4.76771 28.6098C4.85992 35.7342 10.7992 41.4026 17.9251 41.4026H18.652C14.9136 39.1624 12.3682 35.1388 12.3082 30.4947Z" fill="#10AF63"/>
<path d="M33.6443 25.3261C32.8638 25.3261 32.2305 24.6928 32.2305 23.9122V21.369C32.2305 20.5884 32.8638 19.9551 33.6443 19.9551C34.4256 19.9551 35.0582 20.5884 35.0582 21.369V23.9122C35.0582 24.6935 34.4256 25.3261 33.6443 25.3261Z" fill="#333941"/>
<path d="M61.7469 25.3261C60.9663 25.3261 60.333 24.6928 60.333 23.9122V21.369C60.333 20.5884 60.9663 19.9551 61.7469 19.9551C62.5275 19.9551 63.1608 20.5884 63.1608 21.369V23.9122C63.1608 24.6935 62.5275 25.3261 61.7469 25.3261Z" fill="#333941"/>
<path d="M47.6955 26.6845C45.9363 26.6845 44.2837 25.949 43.1629 24.6666C42.649 24.0791 42.709 23.1856 43.2966 22.6716C43.8849 22.1577 44.7776 22.2177 45.2916 22.806C45.8756 23.4736 46.7519 23.8568 47.6955 23.8568C48.639 23.8568 49.5154 23.4736 50.0986 22.806C50.6133 22.2177 51.5061 22.1577 52.0936 22.6716C52.6819 23.1856 52.742 24.0791 52.228 24.6666C51.1072 25.949 49.4553 26.6845 47.6955 26.6845Z" fill="#333941"/>
<path d="M37.2752 46.5251C37.0114 42.7388 33.9363 39.6809 30.1486 39.4357C28.9892 39.3613 27.8812 39.545 26.8755 39.9346C25.7054 40.3885 24.3909 39.9782 23.6832 38.941C22.245 36.8331 19.8254 35.4492 17.0806 35.4492C12.6674 35.4492 9.08978 39.0268 9.08978 43.44V43.4486C9.08978 43.7988 8.74524 44.0354 8.41715 43.9125C7.72951 43.6552 6.97682 43.5294 6.19125 43.5658C3.37707 43.6973 1.06611 45.9654 0.886698 48.7774C0.679405 52.0269 3.25413 54.7275 6.4593 54.7275H29.6411C34.0493 54.7275 37.5876 51.0005 37.2752 46.5251Z" fill="#80DFB6"/>
<path d="M4.65728 50.6624C4.8367 47.8503 7.14694 45.5823 9.96184 45.4507C10.7474 45.4143 11.4994 45.5401 12.187 45.7974C12.5158 45.9204 12.8604 45.6838 12.8597 45.3335V45.3257C12.8597 40.9125 16.4372 37.3349 20.8504 37.3349C21.3844 37.3349 21.9048 37.3885 22.4087 37.4878C20.9955 36.2212 19.1285 35.4492 17.0806 35.4492C12.6674 35.4492 9.08978 39.0268 9.08978 43.4407V43.4486C9.08978 43.7988 8.74524 44.0354 8.41715 43.9125C7.72951 43.6544 6.97682 43.5294 6.19125 43.5658C3.37707 43.6973 1.06611 45.9654 0.886698 48.7774C0.688697 51.8811 3.02896 54.4823 6.03257 54.7096C5.09546 53.6417 4.55793 52.2156 4.65728 50.6624Z" fill="#36D39A"/>
<path d="M58.0758 64.2177C58.3396 60.4314 61.4147 57.3735 65.2024 57.129C66.3618 57.054 67.4698 57.2377 68.4755 57.6273C69.6457 58.0819 70.9602 57.6716 71.6678 56.6344C73.106 54.5264 75.5256 53.1426 78.2705 53.1426C82.6837 53.1426 86.2613 56.7202 86.2613 61.1334V61.1412C86.2613 61.4922 86.6058 61.7288 86.9339 61.6051C87.6215 61.3478 88.3742 61.222 89.1598 61.2585C91.974 61.39 94.2849 63.658 94.4643 66.4701C94.6716 69.7196 92.0969 72.4201 88.8917 72.4201H65.7099C61.3018 72.4201 57.7635 68.6931 58.0758 64.2177Z" fill="#80DFB6"/>
<path d="M63.7307 64.2165C63.9387 61.2401 65.8844 58.714 68.5477 57.6511C68.5234 57.6425 68.4991 57.6353 68.4755 57.6268C67.4698 57.2365 66.3618 57.0528 65.2024 57.1278C61.4147 57.3723 58.3396 60.4302 58.0758 64.2165C57.7635 68.6919 61.3018 72.4189 65.7107 72.4189H71.3655C66.9573 72.4189 63.419 68.6919 63.7307 64.2165Z" fill="#36D39A"/>
</svg>
