<svg width="98" height="117" viewBox="0 0 98 117" fill="none" xmlns="http://www.w3.org/2000/svg">
<path d="M27.4375 15.5518C21.2661 15.5518 20.1518 9.45498 20.1518 2.05176C20.1518 9.45498 18.6089 15.5518 12.4375 15.5518C18.6089 15.5518 19.7232 21.6485 19.7232 29.0518C19.7232 21.6485 20.8375 15.5518 27.0089 15.5518" stroke="#F5F5F5" stroke-width="3" stroke-linecap="round" stroke-linejoin="round"/>
<circle cx="9.9375" cy="107.552" r="7.5" stroke="#F5F5F5" stroke-width="3" stroke-linecap="round" stroke-linejoin="round"/>
<path d="M96.1875 65.5518C96.1875 85.5721 79.9578 101.802 59.9375 101.802C39.9172 101.802 23.6875 85.5721 23.6875 65.5518C23.6875 45.5314 39.9172 29.3018 59.9375 29.3018C79.9578 29.3018 96.1875 45.5314 96.1875 65.5518Z" stroke="#F5F5F5" stroke-width="2.5"/>
<path d="M27.9375 85.0513C30.4375 83.3846 36.3375 79.7513 39.9375 78.5513C44.4375 77.0513 48.4375 74.0513 54.4375 69.5513C60.4375 65.0513 72.4375 67.0513 76.4375 67.0513C80.4375 67.0513 87.4375 64.0512 89.9375 63.0512C91.9375 62.2512 95.4375 62.3846 96.9375 62.5512" stroke="#F5F5F5" stroke-width="2.5"/>
<path d="M37.4375 95.051C38.4375 94.2177 41.4375 92.151 45.4375 90.551C50.4375 88.551 53.4375 84.551 59.4375 83.051C65.4375 81.551 69.9375 82.051 73.9375 81.051C77.9375 80.051 84.4375 79.051 88.9375 80.551C92.5375 81.751 92.9375 82.0518 92.9375 82.0518" stroke="#F5F5F5" stroke-width="2.5"/>
<path d="M45.9375 99.5518C56.4375 94.5518 56.3375 92.2518 61.9375 91.0518C68.9375 89.5518 70.4375 91.0518 75.4375 89.5518C77.4121 88.9594 81.4375 87.5518 82.9375 87.5518C84.9375 87.5518 87.9375 87.8851 88.9375 87.5518" stroke="#F5F5F5" stroke-width="2.5"/>
<path d="M24.4375 58.5528C25.4375 56.8861 28.0375 54.8523 34.4375 52.0523C42.4375 48.5523 41.9375 49.5523 46.9375 46.0523C51.9375 42.5523 55.9375 41.0523 63.4375 43.0523C69.4375 44.6523 75.2708 42.7191 77.4375 41.5525C79.1042 40.7192 84.4375 40.5508 87.9375 42.5518" stroke="#F5F5F5" stroke-width="2.5"/>
<path d="M28.9375 46.552C43.4375 38.5518 42.7375 38.0491 53.9375 36.0491C67.9375 33.5491 59.9375 36.5518 80.4375 35.5519" stroke="#F5F5F5" stroke-width="2.5"/>
</svg>
