<svg width="28" height="19" viewBox="0 0 28 19" fill="none" xmlns="http://www.w3.org/2000/svg">
<path d="M1.80469 5.32129C1.80469 3.38829 3.37169 1.82129 5.30469 1.82129L12.831 1.82129C17.2347 1.82129 20.8047 5.39123 20.8047 9.79497C20.8047 13.6755 17.6589 16.8213 13.7784 16.8213H10.3047C5.61027 16.8213 1.80469 13.0157 1.80469 8.32129V5.32129Z" stroke="#F5F5F5" stroke-width="3"/>
<path d="M21.8047 6.98796C21.8047 5.23905 23.2225 3.82129 24.9714 3.82129C25.4316 3.82129 25.8047 4.19439 25.8047 4.65462V13.988C25.8047 14.4482 25.4316 14.8213 24.9714 14.8213C23.2225 14.8213 21.8047 13.4035 21.8047 11.6546V6.98796Z" stroke="#F5F5F5" stroke-width="3"/>
</svg>
