<svg width="124" height="91" viewBox="0 0 124 91" fill="none" xmlns="http://www.w3.org/2000/svg">
<path d="M67.7995 61.3268C68.0559 61.6997 68.2778 62.0343 68.5088 62.3597C70.83 65.635 74.294 66.9227 77.8464 65.7885C79.3204 65.3158 80.4406 64.4194 80.6955 62.7588C80.9504 61.0981 80.2756 59.729 78.8645 58.9524C76.8672 57.8535 74.7843 56.9173 72.7165 55.9519C70.5016 54.9159 68.3258 53.8031 66.6523 51.9445C63.7222 48.6845 63.1134 44.8291 64.352 40.7265C65.5322 36.8158 68.4233 34.6748 72.2366 33.8997C75.8445 33.166 79.3594 33.4669 82.5384 35.6095C84.0065 36.5979 85.1026 37.9562 85.9873 39.4879C86.0833 39.6537 86.0503 40.0865 85.9304 40.1694C84.0619 41.4402 82.1695 42.6757 80.2516 43.9389C79.8617 43.3956 79.5318 42.886 79.154 42.4179C77.9138 40.8831 76.2928 40.3321 74.4004 40.6406C73.0044 40.8677 71.9757 41.6259 71.6248 43.0825C71.2574 44.6081 71.6248 45.9756 72.9084 46.8888C73.8651 47.5672 74.9358 48.0844 75.9809 48.6231C78.4972 49.9216 81.1603 50.9775 83.5236 52.5154C88.8619 55.9918 90.231 63.6075 86.5841 68.5742C84.6902 71.1527 82.0316 72.445 79.0025 72.9376C74.054 73.7434 69.386 73.0911 65.2773 69.8972C63.825 68.756 62.6281 67.3101 61.7668 65.6565C61.6634 65.4616 61.6769 64.9873 61.7968 64.9136C63.7732 63.6996 65.7601 62.5347 67.7995 61.3268Z" fill="white"/>
<path d="M40.2997 62.0099C40.7165 62.6822 41.0494 63.2516 41.4108 63.7995C42.7019 65.7533 44.5058 66.4639 46.7461 65.9482C47.9908 65.6628 48.8185 64.8984 49.1169 63.6598C49.33 62.7675 49.4392 61.8526 49.4423 60.934C49.4663 52.4158 49.4573 43.8976 49.4573 35.3794V34.0947H57.2339C57.2489 34.3357 57.2789 34.6043 57.2789 34.8713C57.2789 43.6709 57.2789 52.4705 57.2789 61.2701C57.2789 64.1402 56.7735 66.886 55.0221 69.2297C53.1147 71.7744 50.4275 72.8672 47.4194 73.1557C44.0545 73.478 40.829 73.0191 37.9724 70.9594C36.3909 69.8197 35.1143 68.292 34.2595 66.5161C34.1606 66.312 34.1681 65.8423 34.291 65.7625C36.2599 64.5009 38.2483 63.2823 40.2997 62.0099Z" fill="white"/>
<path d="M42.8577 24.3228C42.2039 24.5622 41.901 24.4609 41.9205 23.7288C41.967 22.3581 41.9199 20.9857 41.7795 19.6217C41.3882 20.4535 41.0148 21.2946 40.5949 22.1096C40.4719 22.349 40.2155 22.5148 40.0206 22.7143C39.8451 22.524 39.6157 22.3628 39.5032 22.1388C39.0924 21.3222 38.722 20.4858 38.1956 19.6692V24.3796H37.2674V22.2539C37.2674 21.1028 37.2479 19.9516 37.2809 18.8021C37.2809 18.5488 37.4309 18.1222 37.5808 18.0884C37.9962 17.9932 38.4671 17.9027 38.719 18.4966C39.1149 19.4329 39.5767 20.3384 40.0956 21.4327C40.5634 20.3952 40.9473 19.4927 41.3822 18.6179C41.5057 18.362 41.7203 18.1642 41.982 18.0654C42.5413 17.9272 42.8997 18.0654 42.8817 18.8328C42.8217 20.6653 42.8577 22.5071 42.8577 24.3228Z" fill="white"/>
<path d="M48.2668 24.3302C47.541 24.5758 47.3176 24.3809 47.3296 23.7332C47.361 22.0725 47.3296 20.4103 47.361 18.7497C47.361 18.5133 47.601 18.0774 47.7089 18.0836C48.0583 18.105 48.5712 18.1849 48.7136 18.4289C49.234 19.3237 49.6313 20.2937 50.1592 21.4187C50.591 20.484 51.0109 19.7151 51.3048 18.8985C51.5837 18.1189 52.0396 17.8764 52.9258 18.1449V19.4373C52.9258 20.8431 52.9333 22.249 52.9258 23.6549C52.9258 23.9711 53.0923 24.4223 52.5014 24.4331C51.8671 24.4469 52.0231 23.9726 52.0186 23.6227C52.0036 22.3058 52.0186 20.9874 51.8536 19.6322C51.4698 20.4472 51.1039 21.2698 50.6915 22.071C50.567 22.3166 50.3271 22.5023 50.1412 22.7141C49.9477 22.5146 49.6913 22.3457 49.5744 22.1078C49.1605 21.2959 48.7916 20.4594 48.2728 19.6521L48.2668 24.3302Z" fill="white"/>
<path d="M24.1855 24.4774V17.9683C25.2922 18.0557 26.3464 18.0557 27.3601 18.2522C28.6841 18.5162 29.4804 19.8116 29.4339 21.328C29.3919 22.8735 28.5342 24.0691 27.1261 24.3147C26.1859 24.4789 25.2052 24.4283 24.1855 24.4774ZM25.0853 18.9214C25.0853 20.1492 25.0853 21.3218 25.0853 22.4929C25.0853 23.664 25.0853 23.6547 26.2564 23.5841C27.6405 23.4997 28.4022 22.7339 28.4517 21.3817C28.5027 19.9528 27.8204 19.1086 26.4303 18.926C26.0435 18.8784 25.6416 18.9214 25.0853 18.9214Z" fill="white"/>
<path d="M36.0933 21.2791C36.0933 23.7671 34.3478 25.1453 32.136 24.4178C32.0408 24.3874 31.9473 24.352 31.8556 24.3119C30.3815 23.6151 29.7997 21.2669 30.656 19.4466C31.3023 18.0407 33.1197 17.482 34.5892 18.2279C35.5579 18.7206 36.0978 19.8119 36.0933 21.2791ZM35.1321 21.2454C35.1321 19.5678 34.2068 18.5687 32.8828 18.8035C31.8136 18.9907 31.2573 19.8487 31.2678 21.2899C31.2678 22.6758 31.8331 23.52 32.8828 23.7026C34.1964 23.9328 35.1321 22.9153 35.1321 21.2454Z" fill="white"/>
<path d="M68.011 24.3751C68.011 24.8355 68.0575 25.2407 67.9931 25.6306C67.9586 25.8362 67.7276 26.0066 67.5867 26.1923C67.4367 26.0173 67.1458 25.8454 67.1368 25.6659C67.1038 23.8241 67.1233 21.993 67.1113 20.1559C67.1113 19.6264 67.4652 19.4621 67.7741 19.6755C68.1625 19.9456 68.4009 19.7461 68.7068 19.631C69.884 19.1859 70.9066 19.7092 71.1451 20.9693C71.2653 21.5913 71.2678 22.2311 71.1526 22.8541C70.9096 24.0819 69.893 24.7035 68.6828 24.4902L68.011 24.3751ZM68.011 22.102C67.9872 22.4329 67.9927 22.7652 68.0275 23.095C68.0518 23.1976 68.0968 23.2939 68.1596 23.3777C68.2223 23.4615 68.3014 23.5309 68.3919 23.5816C68.709 23.743 69.0754 23.7704 69.412 23.6578C69.7486 23.5453 70.0285 23.3018 70.1914 22.9799C70.5782 22.1757 70.3758 20.8312 69.7895 20.5242C69.5654 20.4172 69.317 20.3753 69.0712 20.403C68.191 20.4935 68.0125 20.8005 68.0155 22.102H68.011Z" fill="white"/>
<path d="M54.561 20.5595C54.3555 19.9333 54.5445 19.6248 55.1368 19.5818C55.4112 19.5619 55.6826 19.5097 55.957 19.5005C57.53 19.456 58.0954 20.0177 58.0999 21.6185C58.0999 22.3859 58.0864 23.1533 58.0999 23.9207C58.1119 24.4702 57.6845 24.6068 57.4326 24.3812C57.0427 24.0374 56.8133 24.3014 56.5239 24.4134C55.1623 24.9353 53.9746 24.1801 54.0676 22.854C54.1246 22.1051 54.543 21.6415 55.4067 21.4175C55.6993 21.3552 55.9952 21.3106 56.2929 21.2839C56.5793 21.244 56.8657 21.2118 57.1627 21.175C56.9062 20.2602 56.8942 20.2587 54.561 20.5595ZM57.1312 21.9623C56.5958 22.0483 56.0485 22.0375 55.5986 22.2463C55.4458 22.3427 55.3175 22.475 55.2244 22.6321C55.1313 22.7893 55.0761 22.9669 55.0633 23.1503C55.0708 23.3483 55.6031 23.6997 55.8821 23.6813C56.8478 23.6168 57.4491 23.3743 57.1312 21.9623V21.9623Z" fill="white"/>
<path d="M82.9464 21.1258C82.1456 19.8335 81.1365 20.5457 80.2262 20.5395C79.9563 19.9563 80.1453 19.6478 80.7691 19.5818C81.069 19.5496 81.3689 19.4989 81.6688 19.4959C83.1923 19.482 83.7411 20.0407 83.7471 21.6001C83.7471 22.5118 83.7471 23.425 83.7471 24.2891C83.6272 24.3627 83.5717 24.4211 83.5462 24.4103C82.8159 24.0788 82.1411 24.4825 81.4394 24.5515C80.5321 24.6421 79.8678 24.1249 79.7359 23.3237C79.5859 22.4028 79.9848 21.7213 80.8995 21.4819C81.5053 21.3131 82.1471 21.2594 82.9464 21.1258ZM82.7544 21.9439C82.1786 22.0513 81.6208 22.0759 81.135 22.2815C80.898 22.3813 80.6371 22.8464 80.6851 23.0919C80.7331 23.3375 81.123 23.6383 81.3989 23.6798C82.4201 23.8424 82.9239 23.2301 82.7544 21.9485V21.9439Z" fill="white"/>
<path d="M94.761 21.9946C94.773 22.9999 94.5196 23.8824 93.5734 24.3689C92.6946 24.8201 91.549 24.5746 90.9657 23.8624C90.2759 23.0183 90.2309 21.2532 90.8757 20.3324C91.3945 19.5864 92.4487 19.2841 93.3634 19.6156C94.2781 19.9471 94.7565 20.7728 94.761 21.9946ZM93.8613 22.2094C93.8448 21.9516 93.8418 21.8242 93.8283 21.6983C93.7263 20.7068 93.203 20.1958 92.4142 20.317C91.6255 20.4383 91.2146 21.2379 91.3481 22.369C91.462 23.3406 92.0154 23.9269 92.7621 23.735C93.098 23.6491 93.4324 23.3344 93.6468 23.0336C93.8253 22.7834 93.8193 22.4059 93.8658 22.2094H93.8613Z" fill="white"/>
<path d="M76.2966 24.2707C76.1871 24.3628 76.1571 24.3981 76.1466 24.3935C75.3624 23.9177 74.6636 24.5715 73.9168 24.5685C73.0171 24.5685 72.4383 24.0942 72.3693 23.1488C72.31 22.1266 72.3025 21.1021 72.3468 20.0791C72.3758 19.9761 72.4306 19.8827 72.5059 19.8081C72.5811 19.7335 72.6741 19.6804 72.7757 19.654C72.8802 19.6793 72.9764 19.7323 73.0546 19.8078C73.1328 19.8832 73.1902 19.9784 73.221 20.0837C73.2675 20.8987 73.2435 21.7199 73.248 22.5394C73.248 23.1534 73.38 23.6798 74.1297 23.6982C74.8795 23.7167 75.4343 23.224 75.4373 22.4888C75.4373 21.5679 75.4373 20.6578 75.4373 19.7261C76.0447 19.5266 76.3251 19.6279 76.3086 20.3094C76.2756 21.6508 76.2966 22.9999 76.2966 24.2707Z" fill="white"/>
<path d="M59.4669 22.0017C59.4669 21.3878 59.4774 20.7739 59.4669 20.16C59.4564 19.546 59.8732 19.4463 60.1821 19.6995C60.521 19.9773 60.698 19.8008 60.9499 19.6919C62.3865 19.0687 63.3851 19.7364 63.4046 21.3372C63.4136 22.1552 63.4361 22.9748 63.3881 23.7929C63.3761 24.0139 63.1647 24.3592 62.9833 24.4068C62.5439 24.5234 62.5499 24.1367 62.5469 23.8205C62.5349 22.9764 62.5289 22.1322 62.5034 21.2911C62.4854 20.6772 62.1795 20.3457 61.5542 20.3779C60.8449 20.4148 60.3681 20.8307 60.3546 21.44C60.3441 22.2581 60.3771 23.0792 60.3306 23.8957C60.3201 24.083 60.0577 24.2564 59.9122 24.436C59.7623 24.2641 59.4938 24.1029 59.4789 23.9187C59.4234 23.2849 59.4579 22.6418 59.4579 22.0033L59.4669 22.0017Z" fill="white"/>
<path d="M95.9038 19.54C96.7945 20.1064 97.5413 19.4556 98.345 19.4786C99.1997 19.5047 99.7501 20.0726 99.7906 21.0242C99.8385 22.117 99.8025 23.2144 99.8025 24.3731H98.9118C98.9118 23.4292 98.9118 22.5145 98.9118 21.6013C98.9118 20.9766 98.8294 20.3888 98.0196 20.3734C97.2099 20.3581 96.7195 20.8446 96.7165 21.6565C96.7165 22.5467 96.7165 23.4369 96.7165 24.3808H95.8633C95.8633 23.0471 95.8633 21.7517 95.8633 20.4563C95.8633 20.2046 95.8843 19.959 95.9038 19.54Z" fill="white"/>
<path d="M86.0074 19.6194C86.4902 19.6194 86.8456 19.5764 87.1815 19.6394C87.3315 19.667 87.4499 19.9033 87.5819 20.0445C87.4529 20.1627 87.336 20.3638 87.1935 20.3853C86.8139 20.4158 86.4327 20.4209 86.0524 20.4006C86.0524 21.3537 86.0104 22.2624 86.0839 23.1633C86.1018 23.3643 86.5037 23.5946 86.7706 23.6928C86.9776 23.7695 87.249 23.6636 87.4949 23.6375C87.7333 24.2162 87.5249 24.4525 86.9716 24.5231C85.7914 24.6766 85.1541 24.1456 85.1197 22.9285C85.1017 22.3145 85.1481 21.7006 85.0987 21.0867C85.0792 20.838 84.8572 20.614 84.7688 20.3638C84.6998 20.1689 84.6368 19.7821 84.6743 19.7683C85.2231 19.5626 85.0537 19.0822 85.1421 18.6847C85.1841 18.5849 85.2483 18.4964 85.3295 18.4263C85.4107 18.3563 85.5067 18.3065 85.61 18.281C85.712 18.2596 85.9474 18.5174 85.9894 18.6847C86.0554 18.9456 86.0074 19.2342 86.0074 19.6194Z" fill="white"/>
<path d="M78.6302 21.1548C78.6302 22.0465 78.6302 22.9383 78.6302 23.83C78.6302 24.1569 78.6062 24.5222 78.1803 24.4055C78.0669 24.3534 77.9679 24.2733 77.8922 24.1723C77.8166 24.0713 77.7666 23.9526 77.7469 23.8269C77.712 22.0169 77.712 20.2073 77.7469 18.3983C77.7469 18.1819 77.9689 17.8319 78.1488 17.7844C78.6272 17.6524 78.6332 18.0576 78.6332 18.3983C78.6317 19.3192 78.6302 20.237 78.6302 21.1548Z" fill="white"/>
<path d="M65.7056 24.3856H64.8239C64.8239 22.9106 64.8104 21.4848 64.8449 20.0589C64.8449 19.9055 65.1208 19.6906 65.2947 19.6538C65.4027 19.6307 65.6846 19.8947 65.6876 20.0344C65.7236 21.4587 65.7056 22.8845 65.7056 24.3856Z" fill="white"/>
<path d="M89.3284 24.389H88.4362C88.4362 22.8987 88.4257 21.4253 88.4587 19.9534C88.4587 19.8398 88.7751 19.6357 88.9295 19.6464C89.022 19.6751 89.1056 19.7278 89.1724 19.7993C89.2391 19.8708 89.2866 19.9588 89.3104 20.0547C89.3389 21.4851 89.3284 22.914 89.3284 24.389Z" fill="white"/>
<path d="M65.44 17.9336C65.5449 18.1301 65.7489 18.3388 65.7264 18.5168C65.7039 18.6949 65.4265 18.9404 65.2855 18.9205C65.1756 18.8926 65.074 18.8378 64.9893 18.7608C64.9047 18.6838 64.8396 18.5869 64.7997 18.4785C64.7682 18.325 65.0096 18.1116 65.1296 17.9229L65.44 17.9336Z" fill="white"/>
<path d="M88.9531 17.749C89.1615 18.1327 89.3745 18.3629 89.3295 18.4811C89.262 18.6714 89.0086 18.9186 88.8436 18.9109C88.6787 18.9032 88.4298 18.6116 88.4193 18.4305C88.4088 18.2494 88.6652 18.0882 88.9531 17.749Z" fill="white"/>
</svg>
