<svg width="131" height="91" viewBox="0 0 131 91" fill="none" xmlns="http://www.w3.org/2000/svg">
<path d="M98.2977 31.2808C99.3865 32.9572 100.316 34.7285 101.298 36.4639C102.614 38.8017 104.042 41.0769 105.404 43.3843C105.568 43.6614 105.659 43.9795 105.796 44.278C105.955 44.6158 106.06 45.009 106.53 45.0519V45.4093L106.153 45.4201H90.3011H90.0869C91.115 43.6542 92.1432 41.8884 93.1713 40.1225C93.9031 38.8714 94.6742 37.6418 95.3597 36.3692C96.2718 34.6731 97.4231 33.1145 98.1888 31.338C98.2295 31.3288 98.267 31.3091 98.2977 31.2808V31.2808Z" fill="white"/>
<path d="M106.161 45.4199L106.538 45.4092V45.9454C106.131 45.7845 106.134 46.217 106.05 46.3618C104.447 49.1536 102.836 51.9382 101.217 54.7156C100.247 56.3653 99.4157 58.099 98.3126 59.6736C97.197 57.7201 95.9922 55.813 94.9319 53.8327C93.6664 51.452 92.1367 49.2251 90.9622 46.7943C90.7676 46.394 90.507 45.9507 90.0322 45.7541C90.0644 45.6397 90.0947 45.5254 90.1268 45.4128H90.3143C90.5981 45.6362 90.9336 45.5915 91.2567 45.5915C95.9118 45.5915 100.568 45.5915 105.224 45.5915C105.54 45.5897 105.877 45.6415 106.161 45.4199Z" fill="white"/>
<path d="M40.9782 45.2487L40.8854 45.5901H40.6872C40.4034 45.3685 40.0679 45.4114 39.7448 45.4114H25.7812C25.4581 45.4114 25.1225 45.356 24.8387 45.5794L24.6477 45.7581L24.4639 45.7688V45.0539C24.9208 45.1129 24.9994 44.6875 25.1314 44.4409C26.5219 41.7975 28.0873 39.2577 29.5938 36.6768C30.6309 34.8896 31.5394 33.0379 32.6978 31.3257C32.9495 31.794 33.1887 32.2712 33.4564 32.7305C34.381 34.3176 35.3306 35.8887 36.2445 37.4793C37.6029 39.8457 38.938 42.2246 40.2856 44.5964C40.423 44.8957 40.6714 45.1297 40.9782 45.2487V45.2487Z" fill="white"/>
<path d="M89.9461 73.956H73.7031L81.9817 59.688C86.9379 59.688 91.8947 59.6939 96.8521 59.7059C97.2305 59.7059 97.6303 59.6201 97.9713 59.8846L83.3668 59.8882C83.1294 59.8882 82.892 59.8882 82.6528 59.8882C82.137 59.9185 82.0031 60.1563 82.3387 60.5673C83.3186 61.772 83.9023 63.2143 84.7127 64.5226C86.3298 67.1374 87.7864 69.8541 89.2911 72.5386C89.5517 72.989 90.0425 73.3429 89.9461 73.956Z" fill="white"/>
<path d="M65.5176 31.2917L65.6354 31.0933H81.8784L81.9159 31.1201C81.9159 31.2416 81.9159 31.3631 81.9248 31.4775C80.7093 33.0861 79.9239 34.9467 78.869 36.6428C78.0122 38.019 77.2714 39.4578 76.4093 40.8287C75.4687 42.3228 74.6244 43.8814 73.748 45.4131C71.6988 42.1495 69.855 38.7661 67.9219 35.4346C67.1234 34.0548 66.322 32.6738 65.5176 31.2917Z" fill="white"/>
<path d="M81.9288 31.4831C81.9288 31.3615 81.9288 31.24 81.9199 31.1256C81.9541 31.1083 81.9923 31.1002 82.0306 31.1024L96.8064 31.1256C97.2794 31.1256 97.7595 31.0863 98.1968 31.333C97.4311 33.1095 96.2798 34.668 95.3677 36.3642C94.6823 37.6403 93.9112 38.8664 93.1794 40.1175C92.1488 41.881 91.1207 43.6468 90.095 45.4151C89.2025 43.8977 88.2868 42.3892 87.4033 40.8646C85.8664 38.2123 84.3546 35.551 82.832 32.9004C82.5447 32.4161 82.2287 31.9549 81.9288 31.4831Z" fill="white"/>
<path d="M65.5179 31.2915C66.3211 32.6737 67.1249 34.0553 67.9293 35.4362C69.8624 38.7678 71.7063 42.1511 73.7554 45.4147C73.7268 45.4737 73.7001 45.5327 73.6733 45.5935H57.4678L57.25 45.5756C58.1264 44.2476 58.8083 42.8053 59.6508 41.4523C60.2844 40.4353 60.8502 39.3611 61.4553 38.3174C62.8095 35.982 64.1637 33.64 65.5179 31.2915Z" fill="white"/>
<path d="M65.3198 59.8883C65.0093 60.5442 64.754 61.2377 64.3756 61.8543C62.7977 64.4173 61.368 67.0643 59.8579 69.6612C59.0333 71.0785 58.3585 72.6085 57.2822 73.8774C57.1173 73.6697 56.9647 73.4525 56.8253 73.2269C55.724 71.1965 54.5048 69.2305 53.3785 67.2198C52.2522 65.2091 51.0581 63.2287 49.9247 61.2144C49.6965 60.7645 49.3802 60.3652 48.9947 60.0402C48.9947 59.9955 48.9787 59.9526 48.9697 59.9079C49.0105 59.9043 49.05 59.8921 49.0857 59.8722C54.4977 59.6291 59.9097 59.5916 65.3198 59.8883Z" fill="white"/>
<path d="M97.969 59.8776C97.6281 59.6202 97.2283 59.7078 96.8499 59.6988C91.8925 59.6905 86.9357 59.6845 81.9795 59.681C82.0205 59.1448 82.4436 58.7998 82.6935 58.3691C84.2023 55.6977 85.7285 53.0364 87.2719 50.3852C88.175 48.8285 89.1104 47.2914 90.0332 45.7383C90.508 45.9349 90.7686 46.3781 90.9631 46.7785C92.1376 49.2092 93.6673 51.4362 94.9328 53.8169C95.986 55.7972 97.1979 57.7042 98.3135 59.6577L97.8245 60.6175C97.7987 60.362 97.849 60.1045 97.969 59.8776V59.8776Z" fill="white"/>
<path d="M57.4639 45.6025H73.6694C72.7769 46.9216 72.1076 48.3675 71.274 49.7223C70.7064 50.6427 70.1709 51.5989 69.639 52.548C68.6555 54.2977 67.7184 56.0707 66.6046 57.749C66.1762 58.3996 66.0691 59.2539 65.364 59.7347C64.5822 58.3442 63.738 56.984 63.0436 55.5506C62.6509 54.741 62.053 54.085 61.6514 53.2861C61.0159 52.0225 60.3055 50.7839 59.5772 49.5775C58.7951 48.2954 58.0894 46.9681 57.4639 45.6025V45.6025Z" fill="white"/>
<path d="M48.9945 60.0298C49.3799 60.3548 49.6962 60.7541 49.9244 61.204C51.0561 63.2183 52.2448 65.1986 53.3783 67.2094C54.5117 69.2201 55.7237 71.1861 56.825 73.2165C56.9645 73.4421 57.117 73.6593 57.282 73.867C57.0892 74.0815 56.8357 73.985 56.6126 73.985C51.6255 73.9921 46.6377 73.9921 41.6494 73.985C41.3941 73.985 41.1139 74.0761 40.8926 73.8438C41.2032 73.3434 41.528 72.8519 41.8208 72.3407C42.806 70.6267 43.7628 68.8966 44.7588 67.1897C46.1582 64.7965 47.5826 62.4158 48.9945 60.0298Z" fill="white"/>
<path d="M24.6426 45.7544L24.8336 45.5757H40.8856L40.9124 45.5864C40.4822 46.3013 40.0199 46.9787 39.6129 47.7079C38.351 49.9832 37.0033 52.2119 35.7289 54.4818C34.7579 56.2119 33.6298 57.8544 32.8087 59.6649C32.7709 59.6641 32.7343 59.6782 32.707 59.7043C31.6039 58.0957 30.7435 56.3459 29.7814 54.648C28.4891 52.3549 27.088 50.1208 25.7546 47.8563C25.3566 47.1771 25.0138 46.4568 24.6426 45.7544Z" fill="white"/>
<path d="M57.4642 45.6023C58.0923 46.9657 58.8004 48.2906 59.5848 49.5701C60.313 50.7855 61.0234 52.0152 61.6589 53.2788C62.0605 54.0777 62.6584 54.7336 63.0511 55.5433C63.7455 56.9731 64.5898 58.3368 65.3716 59.7273C65.3718 59.7824 65.3536 59.8359 65.3198 59.8793C59.9096 59.5915 54.4977 59.629 49.0857 59.8614C49.0768 59.747 49.0696 59.6344 49.0625 59.52C50.2513 58.176 50.8582 56.4727 51.8345 54.991C52.918 53.3485 53.798 51.5737 54.7815 49.8615C55.599 48.4316 56.4254 47.0018 57.2465 45.5845L57.4642 45.6023Z" fill="white"/>
<path d="M32.7012 59.7098C32.7286 59.6837 32.7651 59.6696 32.8029 59.6704C33.2402 59.9171 33.7204 59.876 34.1934 59.8778L48.9692 59.8939C48.9781 59.9385 48.987 59.9814 48.9942 60.0261C47.5823 62.4122 46.1579 64.7928 44.7585 67.1878C43.7625 68.8947 42.8058 70.6248 41.8205 72.3388C41.5277 72.85 41.2029 73.3415 40.8923 73.8419C39.6143 72.1011 38.6647 70.1637 37.5901 68.3013C35.9462 65.4488 34.197 62.6517 32.7012 59.7098Z" fill="white"/>
<path d="M97.9699 59.8779C97.8492 60.1047 97.7983 60.3622 97.8235 60.6179C96.9299 62.174 96.0374 63.7301 95.1461 65.2863C94.4321 66.5374 93.7717 67.8189 93.0042 69.0307C91.9671 70.6607 91.2799 72.507 89.9573 73.9565C90.0537 73.3434 89.5628 72.9895 89.3093 72.5391C87.8046 69.8582 86.3481 67.1379 84.731 64.5231C83.9206 63.2148 83.3369 61.7725 82.357 60.5678C82.0214 60.1567 82.1553 59.919 82.6711 59.8887C82.9085 59.8744 83.1459 59.8887 83.3851 59.8887L97.9699 59.8779Z" fill="white"/>
<path d="M41.0647 17.0425H57.3077L49.0023 31.3552C48.5579 31.3355 48.1098 31.2997 47.6707 31.2997C43.1643 31.2997 38.658 31.2997 34.1516 31.2997C33.7731 31.2997 33.3733 31.3891 33.0342 31.121H47.3602C47.6868 31.121 48.0135 31.121 48.3401 31.121C48.8524 31.0942 48.9666 30.8779 48.6614 30.4383C47.1549 28.2739 46.0322 25.8807 44.647 23.6465C43.5868 21.9361 42.6443 20.1524 41.6573 18.3973C41.4216 17.9576 40.9629 17.6216 41.0647 17.0425Z" fill="white"/>
<path d="M48.969 59.8973L34.1932 59.8884C33.7202 59.8884 33.24 59.9277 32.8027 59.6811C33.6238 57.8688 34.7519 56.2262 35.7229 54.4979C36.9974 52.228 38.345 49.9993 39.6069 47.7241C40.0121 46.9948 40.4762 46.3103 40.9064 45.6025C41.7328 47.0002 42.5682 48.3925 43.3821 49.7973C44.3924 51.5399 45.3723 53.2986 46.3862 55.0395C47.2626 56.5444 48.1711 58.0332 49.0636 59.5292C49.0636 59.6435 49.0779 59.7561 49.0868 59.8705C49.0498 59.8876 49.0097 59.8967 48.969 59.8973V59.8973Z" fill="white"/>
<path d="M33.0315 31.1128C33.3707 31.3755 33.7705 31.2915 34.1489 31.2915C38.6553 31.2915 43.1617 31.2915 47.6681 31.2915C48.1125 31.2915 48.5606 31.3273 48.9997 31.3469C48.9604 31.9564 48.4642 32.321 48.1946 32.8036C46.6751 35.4929 45.1388 38.1738 43.5859 40.8464C42.7309 42.3209 41.8474 43.7776 40.9763 45.2414C40.6672 45.1231 40.4167 44.8883 40.2784 44.5872C38.9308 42.2155 37.601 39.8366 36.2373 37.4702C35.3252 35.8867 34.3756 34.3156 33.451 32.7214C33.1832 32.262 32.9441 31.7848 32.6924 31.3165L32.8227 31.1128H33.0315Z" fill="white"/>
<path d="M82.0303 31.0951C81.992 31.0929 81.9538 31.1009 81.9196 31.1183L81.8821 31.0915C81.1057 29.7957 80.3221 28.5035 79.5617 27.2023C78.8566 25.9995 78.1337 24.802 77.4822 23.5723C76.3089 21.3787 75.0541 19.234 73.7178 17.1381C73.8963 16.9182 74.1604 17.0147 74.3836 17.0147C79.3743 17.0076 84.365 17.0076 89.3557 17.0147C89.6109 17.0147 89.8912 16.9254 90.1143 17.1542C89.1879 18.6984 88.2454 20.2337 87.3423 21.8011C85.781 24.4773 84.2371 27.1642 82.7103 29.8618C82.4747 30.2747 82.0481 30.5768 82.0303 31.0951Z" fill="white"/>
<path d="M73.7125 17.1382C75.0524 19.2329 76.3072 21.3777 77.4769 23.5725C78.1338 24.8021 78.8513 25.9996 79.5564 27.2025C80.3221 28.5036 81.1057 29.7958 81.8768 31.0916H65.6338C68.2844 26.4196 70.8726 21.7083 73.7125 17.1382Z" fill="white"/>
<path d="M82.0303 31.095C82.0481 30.5714 82.4801 30.2747 82.7103 29.8672C84.2347 27.1648 85.7769 24.4725 87.3369 21.7904C88.2401 20.2319 89.1826 18.6966 90.1089 17.1523C91.619 19.2971 92.8006 21.6474 94.1108 23.9155C95.5227 26.3605 97.031 28.7519 98.2983 31.2809C98.2684 31.3037 98.2335 31.319 98.1965 31.3256C97.7592 31.079 97.2791 31.1201 96.8061 31.1183L82.0303 31.095Z" fill="white"/>
<path d="M33.0319 31.1139H32.8213C33.6941 29.2694 34.7847 27.5536 35.8325 25.8038C36.5822 24.5402 37.2176 23.2069 38.0066 21.9701C39.049 20.3436 39.7451 18.5009 41.0642 17.0425C40.9714 17.6216 41.4212 17.9576 41.6657 18.3847C42.6528 20.1399 43.5952 21.9236 44.6555 23.634C46.0406 25.8717 47.1633 28.2649 48.6698 30.4258C48.9751 30.8654 48.8608 31.0817 48.3485 31.1085C48.0219 31.1246 47.6952 31.1085 47.3686 31.1085L33.0319 31.1139Z" fill="white"/>
<path d="M106.162 45.4202C105.878 45.6419 105.541 45.5864 105.219 45.5864C100.564 45.5864 95.9084 45.5864 91.252 45.5864C90.9289 45.5864 90.5934 45.6365 90.3096 45.4077L106.162 45.4202Z" fill="white"/>
<path d="M40.6874 45.5902H24.8389C25.1227 45.3668 25.4582 45.4222 25.7813 45.4222H39.745C40.068 45.4115 40.4036 45.3615 40.6874 45.5902Z" fill="white"/>
</svg>
