<svg width="60" height="91" viewBox="0 0 60 91" fill="none" xmlns="http://www.w3.org/2000/svg">
<path d="M19.3603 77.7827C25.2339 77.7827 30.0009 72.9618 30.0009 67.0217V56.2607H19.3603C13.4867 56.2607 8.71973 61.0817 8.71973 67.0217C8.71973 72.9618 13.4867 77.7827 19.3603 77.7827Z" fill="white"/>
<path d="M8.71973 45.5002C8.71973 39.5602 13.4867 34.7393 19.3603 34.7393H30.0009V56.2611H19.3603C13.4867 56.2611 8.71973 51.4402 8.71973 45.5002Z" fill="white"/>
<path d="M8.71973 23.9782C8.71973 18.0382 13.4867 13.2173 19.3603 13.2173H30.0009V34.7392H19.3603C13.4867 34.7392 8.71973 29.9183 8.71973 23.9782Z" fill="white"/>
<path d="M30 13.2173H40.6406C46.5142 13.2173 51.2811 18.0382 51.2811 23.9782C51.2811 29.9183 46.5142 34.7392 40.6406 34.7392H30V13.2173Z" fill="white"/>
<path d="M51.2811 45.5002C51.2811 51.4402 46.5142 56.2611 40.6406 56.2611C34.767 56.2611 30 51.4402 30 45.5002C30 39.5602 34.767 34.7393 40.6406 34.7393C46.5142 34.7393 51.2811 39.5602 51.2811 45.5002Z" fill="white"/>
</svg>
