<svg width="84" height="91" viewBox="0 0 84 91" fill="none" xmlns="http://www.w3.org/2000/svg">
<path d="M31.7822 24.0282C21.9033 22.1906 14.1551 24.1249 10.959 29.4444C8.63452 33.5065 9.31249 38.826 12.6055 44.4356C12.896 44.9192 13.4771 45.1127 13.9614 44.8225C14.4457 44.5324 14.6394 43.9521 14.3488 43.4685C11.4432 38.3424 10.8621 33.7967 12.7023 30.4116C15.3173 25.9626 22.2907 24.2217 31.3948 25.9626C31.9759 26.0593 32.4602 25.6724 32.557 25.1888C32.6539 24.7052 32.2665 24.1249 31.7822 24.0282ZM17.7386 51.3993C21.7096 55.7516 26.9396 59.9105 32.8476 63.2956C47.1817 71.5166 62.3875 73.7411 69.942 68.6151C70.4262 68.3249 70.5231 67.6479 70.2325 67.1643C69.942 66.6807 69.264 66.584 68.7797 66.8741C62.0969 71.4199 47.5691 69.3888 33.8161 61.458C28.1018 58.1695 23.0655 54.2041 19.1914 49.9485C18.804 49.5617 18.2229 49.465 17.7386 49.8518C17.3512 50.3354 17.3512 51.0124 17.7386 51.3993Z" fill="white"/>
<path d="M67.5212 50.1419C74.0103 42.5012 76.2379 34.8605 73.1386 29.4443C70.8142 25.4789 66.0684 23.4478 59.5793 23.3511C58.9982 23.3511 58.514 23.8347 58.514 24.3183C58.514 24.8986 58.9982 25.3821 59.4825 25.3821C65.2936 25.4789 69.4582 27.2198 71.2984 30.5082C73.9135 34.9572 71.8796 41.8241 65.8747 48.8845C65.4873 49.2714 65.5842 49.9484 65.9716 50.3353C66.4558 50.6255 67.1338 50.6255 67.5212 50.1419ZM50.8626 24.3183C45.0515 25.5756 38.7561 27.9935 32.8481 31.4754C18.0297 39.9865 8.44138 52.5598 9.79731 61.6513C9.89416 62.2316 10.3784 62.6184 10.9595 62.5217C11.5406 62.425 11.9281 61.9414 11.8312 61.3611C10.5721 53.2368 19.6762 41.3406 33.8166 33.2163C39.6278 29.8312 45.6326 27.5099 51.25 26.3493C51.8312 26.2526 52.1217 25.6723 52.0249 25.1887C51.928 24.5117 51.4437 24.2215 50.8626 24.3183Z" fill="white"/>
<path d="M26.9396 67.9382C30.3294 77.4165 35.85 83.2195 42.0485 83.2195C46.6006 83.2195 50.7652 80.1246 54.0582 74.7084C54.3488 74.2248 54.1551 73.6445 53.6708 73.3543C53.1865 73.0642 52.6054 73.2576 52.3149 73.7412C49.4093 78.5771 45.7289 81.2852 42.0485 81.2852C36.9154 81.2852 31.9759 76.1592 28.8767 67.3579C28.683 66.8743 28.1018 66.5841 27.6176 66.7775C27.1333 66.971 26.7459 67.4546 26.9396 67.9382ZM57.8354 66.1005C59.5788 60.5876 60.4505 54.1075 60.4505 47.434C60.4505 30.7019 54.6393 16.1942 46.2132 12.5189C45.7289 12.3255 45.1478 12.5189 44.8573 13.0025C44.6636 13.4861 44.8573 14.0664 45.3415 14.3566C52.7991 17.645 58.3197 31.3789 58.3197 47.434C58.3197 53.9141 57.448 60.2007 55.7047 65.5202C55.511 66.1005 55.8016 66.5841 56.3827 66.7775C57.0606 66.971 57.6417 66.6808 57.8354 66.1005Z" fill="white"/>
<path d="M76.819 65.1332C76.819 62.4252 74.6883 60.2974 71.9764 60.2974C69.2645 60.2974 67.1338 62.4252 67.1338 65.1332C67.1338 67.8413 69.2645 69.9691 71.9764 69.9691C74.6883 69.9691 76.819 67.8413 76.819 65.1332ZM74.7851 65.1332C74.7851 66.6807 73.526 67.9381 71.9764 67.9381C70.4268 67.9381 69.1677 66.6807 69.1677 65.1332C69.1677 63.5858 70.4268 62.3284 71.9764 62.3284C73.526 62.3284 74.7851 63.5858 74.7851 65.1332Z" fill="white"/>
<path d="M12.0242 69.9691C14.7361 69.9691 16.8669 67.8413 16.8669 65.1332C16.8669 62.4252 14.7361 60.2974 12.0242 60.2974C9.31239 60.2974 7.18164 62.4252 7.18164 65.1332C7.18164 67.8413 9.31239 69.9691 12.0242 69.9691ZM12.0242 67.9381C10.4746 67.9381 9.21554 66.6807 9.21554 65.1332C9.21554 63.5858 10.4746 62.3284 12.0242 62.3284C13.5739 62.3284 14.833 63.5858 14.833 65.1332C14.833 66.6807 13.5739 67.9381 12.0242 67.9381Z" fill="white"/>
<path d="M42.0487 17.4516C44.7605 17.4516 46.8913 15.3238 46.8913 12.6157C46.8913 9.90757 44.7605 7.77979 42.0487 7.77979C39.3368 7.77979 37.2061 9.90757 37.2061 12.6157C37.2061 15.3238 39.3368 17.4516 42.0487 17.4516ZM42.0487 15.4205C40.499 15.4205 39.2399 14.1632 39.2399 12.6157C39.2399 11.0682 40.499 9.81086 42.0487 9.81086C43.5983 9.81086 44.8574 11.0682 44.8574 12.6157C44.8574 14.1632 43.5983 15.4205 42.0487 15.4205Z" fill="white"/>
<path d="M42.8229 50.819C40.8858 51.2059 39.0456 50.0453 38.6582 48.1109C38.2708 46.1766 39.433 44.3389 41.3701 43.9521C43.3071 43.5652 45.1473 44.7258 45.5347 46.6601C45.9221 48.5945 44.6631 50.4321 42.8229 50.819Z" fill="white"/>
</svg>
