<svg width="95" height="87" viewBox="0 0 95 87" fill="none" xmlns="http://www.w3.org/2000/svg">
<path d="M38.8578 87C37.685 87 36.5202 86.6944 35.492 86.1063L24.7787 79.8053C23.1786 78.9163 23.9594 78.6019 24.4871 78.4208C26.6206 77.6786 27.0536 77.5111 29.3309 76.2263C29.5703 76.0906 29.8835 76.1385 30.1285 76.2822L38.3589 81.134C38.6561 81.2936 39.0779 81.2936 39.3534 81.134L71.4443 62.7322C71.7415 62.5647 71.9343 62.2215 71.9343 61.8704V25.0829C71.9343 24.7158 71.7415 24.3887 71.4379 24.2051L39.3598 5.81937C39.0626 5.64381 38.669 5.64381 38.3718 5.81937L6.30011 24.2051C5.98924 24.3807 5.79164 24.7238 5.79164 25.0749V61.8624C5.79164 62.2135 5.98442 62.5487 6.28967 62.7163L15.0775 67.7596C19.849 70.1296 22.7649 67.3367 22.7649 64.5277V28.219C22.7649 27.7003 23.1746 27.3013 23.6967 27.3013H27.7613C28.2673 27.3013 28.6851 27.7003 28.6851 28.219V64.5437C28.6851 70.8638 25.2149 74.4947 19.1823 74.4947C17.3267 74.4947 15.8647 74.4947 11.7841 72.4997L3.36574 67.6798C1.28525 66.4828 0 64.2484 0 61.8624V25.0749C0 22.681 1.28525 20.4466 3.36574 19.2655L35.4888 0.855848C37.5211 -0.285283 40.2201 -0.285283 42.2364 0.855848L74.3193 19.2735C76.3917 20.4625 77.685 22.6889 77.685 25.0829V61.8704C77.685 64.2564 76.3917 66.4828 74.3193 67.6798L42.2364 86.0895C41.2082 86.68 40.0434 86.9832 38.8546 86.9832" fill="white"/>
<path d="M48.7695 61.651C34.7282 61.651 31.7842 55.2479 31.7842 49.8774C31.7842 49.3667 32.1987 48.9597 32.7136 48.9597H36.8585C37.3164 48.9597 37.7019 49.2908 37.7742 49.7401C38.4008 53.936 40.2644 56.0522 48.755 56.0522C55.5186 56.0522 58.3944 54.5345 58.3944 50.9714C58.3944 48.9206 57.575 47.3964 47.0682 46.375C38.2803 45.5131 32.8501 43.59 32.8501 36.6075C32.8501 30.1757 38.3124 26.3453 47.4618 26.3453C57.7357 26.3453 62.8285 29.8884 63.4711 37.5013C63.4952 37.7646 63.3988 38.02 63.2221 38.2115C63.0453 38.395 62.7963 38.5068 62.5393 38.5068H58.3703C57.9365 38.5068 57.559 38.2035 57.4706 37.7886C56.4665 33.3757 54.0406 31.9632 47.4457 31.9632C40.0636 31.9632 39.2041 34.5168 39.2041 36.432C39.2041 38.7541 40.2162 39.4324 50.1768 40.7411C60.0411 42.0419 64.7242 43.8772 64.7242 50.7639C64.7242 57.7065 58.8924 61.6885 48.7229 61.6885L48.7695 61.651ZM87.8104 22.6746H88.8868C89.7704 22.6746 89.9391 22.0601 89.9391 21.701C89.9391 20.7594 89.2884 20.7594 88.927 20.7594H87.8184L87.8104 22.6746ZM86.5011 19.6582H88.8868C89.7061 19.6582 91.3127 19.6582 91.3127 21.4776C91.3127 22.7464 90.4933 23.0097 90.0033 23.1693C90.9592 23.2332 91.0235 23.8556 91.152 24.7334C91.2163 25.284 91.3207 26.2336 91.5135 26.5528H90.0435C90.0033 26.2336 89.7784 24.478 89.7784 24.3823C89.682 23.9913 89.5455 23.7997 89.0555 23.7997H87.8425V26.5608H86.5011V19.6582ZM83.6334 23.0895C83.6334 25.9463 85.9548 28.2605 88.8065 28.2605C91.6822 28.2605 94.0037 25.8985 94.0037 23.0895C94.0037 20.2247 91.6501 17.9505 88.7984 17.9505C85.987 17.9505 83.6253 20.1928 83.6253 23.0815L83.6334 23.0895ZM94.9997 23.1055C94.9997 26.489 92.2124 29.25 88.8145 29.25C85.4407 29.25 82.6293 26.5209 82.6293 23.1055C82.6293 19.6262 85.505 16.9609 88.8145 16.9609C92.1481 16.9609 94.9917 19.6342 94.9917 23.1055" fill="white"/>
</svg>
