<svg width="91" height="91" viewBox="0 0 91 91" fill="none" xmlns="http://www.w3.org/2000/svg">
<path fill-rule="evenodd" clip-rule="evenodd" d="M22.75 36.3997C25.7829 24.2668 33.3671 18.1997 45.5 18.1997C63.7 18.1997 65.975 31.8497 75.075 34.1247C81.1421 35.6418 86.45 33.3668 91 27.2997C87.9671 39.4326 80.3829 45.4997 68.25 45.4997C50.05 45.4997 47.775 31.8497 38.675 29.5747C32.6079 28.0576 27.3 30.3326 22.75 36.3997ZM0 63.6997C3.03286 51.5668 10.6171 45.4997 22.75 45.4997C40.95 45.4997 43.225 59.1497 52.325 61.4247C58.3921 62.9418 63.7 60.6669 68.25 54.5997C65.2171 66.7326 57.6329 72.7997 45.5 72.7997C27.3 72.7997 25.025 59.1497 15.925 56.8747C9.85786 55.3576 4.55 57.6326 0 63.6997Z" fill="white"/>
</svg>
