<svg width="113" height="91" viewBox="0 0 113 91" fill="none" xmlns="http://www.w3.org/2000/svg">
<path d="M100.705 40.6538C106.003 40.6538 109.871 43.4088 111.142 44.7863L107.434 49.2897C105.208 47.5414 103.036 46.7996 100.758 46.7996C98.4798 46.7996 96.4135 47.4354 96.4135 49.3427C96.4135 50.8686 97.5438 51.7092 98.1089 51.9388C99.0096 52.3273 101.637 53.4435 104.943 54.7998C109.076 56.4952 112.096 58.6144 112.096 63.7006C112.096 68.7868 107.275 73.2373 99.7513 73.2373C93.7327 73.2373 89.5083 70.235 88.1484 68.7339L92.175 63.9126C96.3075 67.0385 98.3208 67.0914 100.44 67.0914C102.559 67.0914 104.732 66.2967 104.732 64.1245C104.732 62.3867 102.824 61.3518 101.871 61.0516C101.217 60.7867 99.2003 59.9602 96.3605 58.7734C92.8108 57.2899 89.2081 55.0647 89.2081 49.8196C89.2081 44.5744 94.0823 40.6538 100.705 40.6538Z" fill="white"/>
<path fill-rule="evenodd" clip-rule="evenodd" d="M18.796 77.2637C17.9907 79.6796 19.5907 80.2836 20.4914 80.2836H23.0345C23.8398 80.2836 24.3944 79.3653 24.571 78.9061L27.22 70.0052L42.3197 74.4557C42.5316 75.2151 43.0614 77.0941 43.4853 78.5352C43.9091 79.9763 44.9334 80.2659 45.3926 80.2306H47.8827C49.9596 80.2306 49.9843 78.4999 49.737 77.6345L38.558 42.8259C39.547 42.2607 41.5249 40.2934 41.5249 36.945C41.5249 32.7594 37.9222 29.5806 34.0016 29.5806C30.081 29.5806 26.6372 32.9184 26.6372 36.9979C26.6372 40.2616 28.7212 42.3844 29.7631 43.0378C26.443 53.4398 19.6013 74.8477 18.796 77.2637ZM36.4911 37.0501C36.4911 38.3376 35.4474 39.3813 34.16 39.3813C32.8725 39.3813 31.8288 38.3376 31.8288 37.0501C31.8288 35.7626 32.8725 34.7189 34.16 34.7189C35.4474 34.7189 36.4911 35.7626 36.4911 37.0501ZM31.8288 53.845L37.0209 56.4411L34.2129 46.5336L34.001 46.4806L31.8288 53.845ZM30.7691 57.7126L28.8088 64.1233L36.4381 60.4676L30.7691 57.7126ZM39.0341 63.4347L31.4048 67.1964L40.9944 70.0574L39.0341 63.4347Z" fill="white"/>
<path d="M27.7501 28.309L27.4322 28.521L18.2664 21.9513L19.2201 21.1036L14.8756 16.1763L16.2002 16.1234L11.8027 10.1365L12.0676 9.87158L23.4056 18.5075L22.5049 19.6731L26.1077 23.8586L24.4123 23.7527L27.7501 28.309Z" fill="white"/>
<path d="M23.8118 36.8061L23.6424 37.1486L12.4198 36.042L12.8219 34.831L6.59583 32.7361L7.71642 32.028L0.91468 29.0419L1.01164 28.68L15.1486 30.49L14.9514 31.9498L20.1642 33.7732L18.6429 34.5291L23.8118 36.8061Z" fill="white"/>
<path d="M40.6249 28.3623L40.9428 28.5742L50.1086 22.0045L49.1549 21.1568L53.4994 16.2296L52.1748 16.1766L56.5723 10.1897L56.3074 9.9248L44.9694 18.5607L45.8701 19.7263L42.2673 23.9118L43.9627 23.8059L40.6249 28.3623Z" fill="white"/>
<path d="M44.2273 36.8061L44.3966 37.1486L55.6192 36.042L55.2172 34.831L61.4432 32.7361L60.3226 32.028L67.1244 29.0419L67.0274 28.68L52.8905 30.49L53.0877 31.9498L47.8749 33.7732L49.3961 34.5291L44.2273 36.8061Z" fill="white"/>
<path d="M63.9892 47.0645V40.9717L83.6452 41.0247V61.6344C83.6452 69.1047 79.3537 73.6611 71.8834 73.6611C65.9071 73.6611 62.3291 70.0584 61.2871 68.257L65.4726 63.8066C66.3203 65.0252 68.4396 67.3563 71.6714 67.3563C75.8675 67.3563 76.5634 63.6476 76.3868 61.7933V47.0645H63.9892Z" fill="white"/>
</svg>
