<svg width="87" height="93" viewBox="0 0 87 93" fill="none" xmlns="http://www.w3.org/2000/svg">
<path d="M43.3363 54.0047C47.5908 54.0047 51.0398 50.5557 51.0398 46.3012C51.0398 42.0466 47.5908 38.5977 43.3363 38.5977C39.0818 38.5977 35.6328 42.0466 35.6328 46.3012C35.6328 50.5557 39.0818 54.0047 43.3363 54.0047Z" fill="white"/>
<path d="M43.3359 62.0841C66.1651 62.0841 84.6718 55.0179 84.6718 46.3013C84.6718 37.5847 66.1651 30.5186 43.3359 30.5186C20.5067 30.5186 2 37.5847 2 46.3013C2 55.0179 20.5067 62.0841 43.3359 62.0841Z" stroke="white" stroke-width="3.75781"/>
<path d="M29.6692 54.193C41.0838 73.9637 56.4567 86.4578 64.0055 82.0995C71.5543 77.7412 68.4204 58.1809 57.0058 38.4102C45.5912 18.6396 30.2184 6.1454 22.6696 10.5037C15.1208 14.862 18.2547 34.4224 29.6692 54.193Z" stroke="white" stroke-width="3.75781"/>
<path d="M29.6693 38.4111C18.2547 58.1818 15.1209 77.7421 22.6697 82.1004C30.2184 86.4587 45.5913 73.9646 57.0059 54.1939C68.4205 34.4233 71.5543 14.8629 64.0055 10.5046C56.4567 6.1463 41.0839 18.6405 29.6693 38.4111Z" stroke="white" stroke-width="3.75781"/>
</svg>
