<svg width="91" height="91" viewBox="0 0 91 91" fill="none" xmlns="http://www.w3.org/2000/svg">
<path d="M59.2943 58.9683C61.9333 58.6953 63.9353 56.4203 63.8443 53.6903C63.7533 50.9603 61.4783 48.7763 58.7483 48.7763H58.5663C55.7453 48.8673 53.5613 51.2333 53.6523 54.0543C53.7433 55.4193 54.2893 56.6023 55.1083 57.4213C52.0143 63.5183 47.2823 67.9773 40.1843 71.7083C35.3613 74.2563 30.3563 75.1663 25.3513 74.5293C21.2563 73.9833 18.0713 72.1633 16.0693 69.1603C13.1573 64.7013 12.8843 59.8783 15.3413 55.0553C17.0703 51.5973 19.8003 49.0493 21.5293 47.7753C21.1653 46.5923 20.6193 44.5903 20.3463 43.1343C7.15127 52.6893 8.51627 65.6113 12.5203 71.7083C15.5233 76.2583 21.6203 79.0793 28.3543 79.0793C30.1743 79.0793 31.9943 78.8973 33.8143 78.4423C45.4623 76.1673 54.2893 69.2513 59.2943 58.9683V58.9683Z" fill="white"/>
<path d="M75.3098 47.684C68.3938 39.585 58.2018 35.126 46.5538 35.126H45.0978C44.2788 33.488 42.5498 32.396 40.6388 32.396H40.4568C37.6358 32.487 35.4518 34.853 35.5428 37.674C35.6338 40.404 37.9088 42.588 40.6388 42.588H40.8208C42.8228 42.497 44.5518 41.223 45.2798 39.494H46.9178C53.8338 39.494 60.3858 41.496 66.3008 45.409C70.8508 48.412 74.1268 52.325 75.9468 57.057C77.4938 60.879 77.4028 64.61 75.7648 67.795C73.2168 72.618 68.9398 75.257 63.2978 75.257C59.6578 75.257 56.1998 74.165 54.3798 73.346C53.3788 74.256 51.5588 75.712 50.2848 76.622C54.1978 78.442 58.2018 79.443 62.0238 79.443C70.7598 79.443 77.2208 74.62 79.6778 69.797C82.3168 64.519 82.1348 55.419 75.3098 47.684Z" fill="white"/>
<path d="M29.0824 60.5151C29.1734 63.2451 31.4484 65.4291 34.1784 65.4291H34.3604C37.1814 65.3381 39.3654 62.9721 39.2744 60.1511C39.1834 57.4211 36.9084 55.2371 34.1784 55.2371H33.9964C33.8144 55.2371 33.5414 55.2371 33.3594 55.3281C29.6284 49.1401 28.0814 42.4061 28.6274 35.1261C28.9914 29.6661 30.8114 24.9341 33.9964 21.0211C36.6354 17.6541 41.7314 16.0161 45.1894 15.9251C54.8354 15.7431 58.9304 27.7551 59.2034 32.5781C60.3864 32.8511 62.3884 33.4881 63.7534 33.9431C62.6614 19.2011 53.5614 11.5571 44.8254 11.5571C36.6354 11.5571 29.0824 17.4721 26.0794 26.2081C21.8934 37.8561 24.6234 49.0491 29.7194 57.8761C29.2644 58.5131 28.9914 59.5141 29.0824 60.5151V60.5151Z" fill="white"/>
</svg>
