<svg width="547" height="131" viewBox="0 0 547 131" fill="none" xmlns="http://www.w3.org/2000/svg">
<path d="M79 75.3677C30.7539 67.1591 1 55.9097 1 43.4999C1 31.0902 30.7539 19.8408 79 11.6322C189 -7.08326 440.5 1.57064 497 17.4624C527.883 24.8394 546 33.8164 546 43.4999C546 68.6289 423.998 88.9999 273.5 88.9999C232.604 88.9999 193.812 87.4957 159 84.8005M79 75.3677L73 69.4999M79 75.3677L65 78.4999" stroke="#9B9999" stroke-width="1.5" stroke-linecap="round"/>
<path d="M256.698 116.764C257.55 116.764 258.186 116.572 258.606 116.188C259.038 115.792 259.254 115.288 259.254 114.676V114.55C259.254 113.89 259.044 113.398 258.624 113.074C258.216 112.738 257.676 112.57 257.004 112.57C256.356 112.57 255.828 112.714 255.42 113.002C255.012 113.278 254.676 113.656 254.412 114.136L253.296 113.272C253.452 113.02 253.638 112.774 253.854 112.534C254.082 112.282 254.346 112.06 254.646 111.868C254.946 111.676 255.294 111.52 255.69 111.4C256.086 111.28 256.536 111.22 257.04 111.22C257.568 111.22 258.066 111.292 258.534 111.436C259.002 111.568 259.404 111.772 259.74 112.048C260.088 112.312 260.358 112.642 260.55 113.038C260.754 113.434 260.856 113.884 260.856 114.388C260.856 114.796 260.79 115.162 260.658 115.486C260.538 115.81 260.37 116.092 260.154 116.332C259.938 116.572 259.68 116.776 259.38 116.944C259.092 117.112 258.78 117.238 258.444 117.322V117.394C258.78 117.466 259.104 117.586 259.416 117.754C259.74 117.91 260.022 118.12 260.262 118.384C260.514 118.636 260.712 118.948 260.856 119.32C261.012 119.68 261.09 120.094 261.09 120.562C261.09 121.102 260.988 121.6 260.784 122.056C260.58 122.5 260.292 122.884 259.92 123.208C259.548 123.52 259.098 123.766 258.57 123.946C258.042 124.126 257.46 124.216 256.824 124.216C256.284 124.216 255.804 124.156 255.384 124.036C254.964 123.916 254.592 123.754 254.268 123.55C253.944 123.346 253.656 123.118 253.404 122.866C253.164 122.614 252.948 122.35 252.756 122.074L253.89 121.21C254.046 121.462 254.214 121.69 254.394 121.894C254.586 122.098 254.796 122.272 255.024 122.416C255.252 122.56 255.51 122.674 255.798 122.758C256.086 122.83 256.422 122.866 256.806 122.866C257.694 122.866 258.366 122.668 258.822 122.272C259.278 121.864 259.506 121.288 259.506 120.544V120.4C259.506 119.656 259.278 119.086 258.822 118.69C258.366 118.282 257.694 118.078 256.806 118.078H255.33V116.764H256.698ZM268.211 124.216C267.563 124.216 266.975 124.108 266.447 123.892C265.931 123.664 265.487 123.346 265.115 122.938C264.755 122.518 264.479 122.008 264.287 121.408C264.095 120.808 263.999 120.136 263.999 119.392C263.999 118.456 264.137 117.58 264.413 116.764C264.689 115.936 265.043 115.186 265.475 114.514C265.919 113.83 266.405 113.23 266.933 112.714C267.461 112.186 267.977 111.76 268.481 111.436H270.425C269.753 111.928 269.153 112.408 268.625 112.876C268.097 113.344 267.635 113.836 267.239 114.352C266.843 114.856 266.507 115.402 266.231 115.99C265.955 116.566 265.733 117.22 265.565 117.952L265.655 117.988C265.955 117.472 266.339 117.046 266.807 116.71C267.287 116.362 267.911 116.188 268.679 116.188C269.219 116.188 269.717 116.278 270.173 116.458C270.629 116.638 271.019 116.896 271.343 117.232C271.667 117.568 271.919 117.976 272.099 118.456C272.291 118.936 272.387 119.47 272.387 120.058C272.387 120.67 272.285 121.234 272.081 121.75C271.889 122.254 271.607 122.692 271.235 123.064C270.875 123.424 270.437 123.706 269.921 123.91C269.405 124.114 268.835 124.216 268.211 124.216ZM268.193 122.902C269.021 122.902 269.663 122.674 270.119 122.218C270.587 121.762 270.821 121.108 270.821 120.256V120.112C270.821 119.26 270.587 118.606 270.119 118.15C269.663 117.694 269.021 117.466 268.193 117.466C267.365 117.466 266.717 117.694 266.249 118.15C265.793 118.606 265.565 119.26 265.565 120.112V120.256C265.565 121.108 265.793 121.762 266.249 122.218C266.717 122.674 267.365 122.902 268.193 122.902ZM278.986 124.216C277.486 124.216 276.388 123.646 275.692 122.506C275.008 121.366 274.666 119.77 274.666 117.718C274.666 115.666 275.008 114.07 275.692 112.93C276.388 111.79 277.486 111.22 278.986 111.22C280.486 111.22 281.578 111.79 282.262 112.93C282.958 114.07 283.306 115.666 283.306 117.718C283.306 119.77 282.958 121.366 282.262 122.506C281.578 123.646 280.486 124.216 278.986 124.216ZM278.986 122.902C279.478 122.902 279.898 122.8 280.246 122.596C280.594 122.392 280.876 122.104 281.092 121.732C281.308 121.36 281.464 120.922 281.56 120.418C281.668 119.914 281.722 119.356 281.722 118.744V116.692C281.722 116.08 281.668 115.522 281.56 115.018C281.464 114.514 281.308 114.076 281.092 113.704C280.876 113.332 280.594 113.044 280.246 112.84C279.898 112.636 279.478 112.534 278.986 112.534C278.494 112.534 278.074 112.636 277.726 112.84C277.378 113.044 277.096 113.332 276.88 113.704C276.664 114.076 276.502 114.514 276.394 115.018C276.298 115.522 276.25 116.08 276.25 116.692V118.744C276.25 119.356 276.298 119.914 276.394 120.418C276.502 120.922 276.664 121.36 276.88 121.732C277.096 122.104 277.378 122.392 277.726 122.596C278.074 122.8 278.494 122.902 278.986 122.902ZM288.591 117.412C288.159 117.412 287.757 117.334 287.385 117.178C287.025 117.022 286.707 116.806 286.431 116.53C286.167 116.254 285.957 115.93 285.801 115.558C285.645 115.174 285.567 114.76 285.567 114.316C285.567 113.872 285.645 113.464 285.801 113.092C285.957 112.708 286.167 112.378 286.431 112.102C286.707 111.826 287.025 111.61 287.385 111.454C287.757 111.298 288.159 111.22 288.591 111.22C289.023 111.22 289.419 111.298 289.779 111.454C290.151 111.61 290.469 111.826 290.733 112.102C291.009 112.378 291.225 112.708 291.381 113.092C291.537 113.464 291.615 113.872 291.615 114.316C291.615 114.76 291.537 115.174 291.381 115.558C291.225 115.93 291.009 116.254 290.733 116.53C290.469 116.806 290.151 117.022 289.779 117.178C289.419 117.334 289.023 117.412 288.591 117.412ZM288.591 116.26C289.131 116.26 289.557 116.074 289.869 115.702C290.193 115.318 290.355 114.856 290.355 114.316C290.355 113.776 290.193 113.32 289.869 112.948C289.557 112.564 289.131 112.372 288.591 112.372C288.051 112.372 287.619 112.564 287.295 112.948C286.983 113.32 286.827 113.776 286.827 114.316C286.827 114.856 286.983 115.318 287.295 115.702C287.619 116.074 288.051 116.26 288.591 116.26Z" fill="#9B9999"/>
</svg>
